<?xml version="1.0" standalone="no"?>
<!DOCTYPE svg PUBLIC "-//W3C//DTD SVG 1.1//EN" "http://www.w3.org/Graphics/SVG/1.1/DTD/svg11.dtd" >
<svg xmlns="http://www.w3.org/2000/svg">
<metadata>Generated by IcoMoon</metadata>
<defs>
<font id="icon_acc" horiz-adv-x="1024">
<font-face units-per-em="1024" ascent="960" descent="-64" />
<missing-glyph horiz-adv-x="1024" />
<glyph unicode="&#x20;" horiz-adv-x="512" d="" />
<glyph unicode="&#xe900;" glyph-name="access" d="M768 576v85.333c0 141.385-114.615 256-256 256s-256-114.615-256-256v0-85.333c-94.257 0-170.667-76.41-170.667-170.667v0-256c0-94.257 76.41-170.667 170.667-170.667v0h512c94.257 0 170.667 76.41 170.667 170.667v0 256c0 94.257-76.41 170.667-170.667 170.667v0zM341.333 661.333c0 94.257 76.41 170.667 170.667 170.667s170.667-76.41 170.667-170.667v0-85.333h-341.333zM853.333 149.333c0-47.128-38.205-85.333-85.333-85.333v0h-512c-47.128 0-85.333 38.205-85.333 85.333v0 256c0 47.128 38.205 85.333 85.333 85.333v0h512c47.128 0 85.333-38.205 85.333-85.333v0zM512 448c-70.264-0.563-127.007-57.653-127.007-127.996 0-55.027 34.724-101.945 83.455-120.036l0.886-0.288v-93.013h85.333v93.013c49.617 18.379 84.34 65.296 84.34 120.324 0 70.343-56.743 127.434-126.954 127.996h-0.053zM512 277.333c-23.564 0-42.667 19.103-42.667 42.667s19.103 42.667 42.667 42.667c23.564 0 42.667-19.103 42.667-42.667v0c0-23.564-19.103-42.667-42.667-42.667v0z" />
<glyph unicode="&#xe901;" glyph-name="accounts" d="M666.88 415.147c61.715 47.236 101.12 120.933 101.12 203.834 0 141.385-114.615 256-256 256s-256-114.615-256-256c0-82.9 39.405-156.597 100.506-203.382l0.614-0.451c-135.995-61.031-229.022-195.213-229.12-351.134v-0.013h85.333c0 164.949 133.718 298.667 298.667 298.667s298.667-133.718 298.667-298.667v0h85.333c-0.098 155.934-93.125 290.116-226.693 350.171l-2.427 0.976zM341.333 618.667c0 94.257 76.41 170.667 170.667 170.667s170.667-76.41 170.667-170.667c0-94.257-76.41-170.667-170.667-170.667v0c-94.257 0-170.667 76.41-170.667 170.667v0z" />
<glyph unicode="&#xe902;" glyph-name="add-on-cards" d="M938.667 874.667h-768v85.333h-170.667v-85.333h85.333v-938.667h85.333v85.333h768c47.128 0 85.333 38.205 85.333 85.333v0 682.667c0 47.128-38.205 85.333-85.333 85.333v0zM213.333 106.667h-42.667v682.667h42.667zM938.667 106.667h-640v682.667h640zM597.333 490.667h85.333v-85.333h-85.333v85.333zM469.333 362.667v-85.333h128v-85.333h85.333v85.333h128v128h85.333v85.333h-85.333v128h-128v85.333h-85.333v-85.333h-128v-128h-85.333v-85.333h85.333zM554.667 533.333h170.667v-170.667h-170.667z" />
<glyph unicode="&#xe903;" glyph-name="add" d="M853.333 490.667h-298.667v298.667h-85.333v-298.667h-298.667v-85.333h298.667v-298.667h85.333v298.667h298.667v85.333z" />
<glyph unicode="&#xe904;" glyph-name="add_redfish" d="M853.333 192v170.667h-85.333v-170.667h-170.667v-85.333h170.667v-170.667h85.333v170.667h170.667v85.333h-170.667zM512 576c0-23.564-19.103-42.667-42.667-42.667s-42.667 19.103-42.667 42.667c0 23.564 19.103 42.667 42.667 42.667s42.667-19.103 42.667-42.667zM702.293 533.333l115.627-76.8v241.493l-115.627-79.36-232.96 157.013-298.667-199.68 298.667-199.68zM469.333 672.853l145.067-96.853-145.067-96.853-145.067 96.853zM170.667 576v256h682.667v-341.333h85.333v341.333c0 47.128-38.205 85.333-85.333 85.333v0h-682.667c-47.128 0-85.333-38.205-85.333-85.333v0-554.667c0-47.128 38.205-85.333 85.333-85.333v0h341.333v85.333h-341.333zM85.333 106.667c0-23.564 19.103-42.667 42.667-42.667v0h384v85.333h-384c-23.564 0-42.667-19.103-42.667-42.667v0z" />
<glyph unicode="&#xe905;" glyph-name="add_vsphere" d="M725.333 448c0 0.002 0 0.004 0 0.007 0 44.548-11.379 86.439-31.388 122.924l0.668-1.33 116.053 62.72v-184.32h85.333v256c0 0.035 0 0.076 0 0.116 0 16.054-8.866 30.037-21.969 37.319l-0.218 0.111-384 207.787c-6.12 3.594-13.479 5.716-21.333 5.716s-15.214-2.123-21.535-5.825l-383.799-207.678c-12.371-7.617-20.494-21.087-20.494-36.453 0-0.385 0.005-0.768 0.015-1.15l-0.001 0.056v-469.333c-0.001-0.105-0.001-0.228-0.001-0.352 0-15.883 8.678-29.738 21.552-37.084l0.21-0.11 384-207.787c6.12-3.594 13.479-5.716 21.333-5.716s15.214 2.123 21.535 5.825l-0.201-0.109 22.187 12.373v194.133c121.219 21.697 212.033 126.32 212.053 252.158v0.002zM426.667 98.56l-298.667 161.707v372.053l116.053-62.72c-19.264-35.097-30.595-76.906-30.595-121.362 0-126.269 91.417-231.186 211.677-252.177l1.532-0.221zM426.667 283.307c-74.016 19.577-127.736 85.825-128 164.663v0.030c0.141 29.654 8.037 57.434 21.762 81.454l-0.429-0.814 106.667-57.6zM469.333 544.853l-88.747 48.213c25.169 16.040 55.845 25.564 88.747 25.564s63.578-9.524 89.424-25.966l-0.677 0.402zM512 283.307v187.733l106.667 57.6c13.296-23.206 21.192-50.986 21.333-80.599v-0.041c-0.264-78.868-53.984-145.116-126.809-164.425l-1.191-0.268zM469.333 704c-65.855-0.405-125.745-25.613-170.87-66.743l0.203 0.183-123.733 66.56 294.4 159.147 294.4-159.147-123.733-66.56c-44.922 40.947-104.812 66.155-170.584 66.56h-0.083zM853.333 192v170.667h-85.333v-170.667h-170.667v-85.333h170.667v-170.667h85.333v170.667h170.667v85.333h-170.667z" />
<glyph unicode="&#xe906;" glyph-name="agents_update" d="M469.333 405.333c0.082 0 0.18 0 0.277 0 94.257 0 170.667 76.41 170.667 170.667s-76.41 170.667-170.667 170.667c-94.257 0-170.667-76.41-170.667-170.667 0-47.802 19.652-91.013 51.318-121.996l0.031-0.030c-57.1-38.786-94.154-103.371-94.293-176.619v-0.021h-85.333v512h682.667v-213.333h85.333v213.333c0 47.128-38.205 85.333-85.333 85.333v0h-682.667c-47.128 0-85.333-38.205-85.333-85.333v0-512c0-47.128 38.205-85.333 85.333-85.333v0h298.667v85.333h-128c0 70.692 57.308 128 128 128v0zM469.333 661.333c47.128 0 85.333-38.205 85.333-85.333s-38.205-85.333-85.333-85.333c-47.128 0-85.333 38.205-85.333 85.333v0c0 47.128 38.205 85.333 85.333 85.333v0zM725.333 79.787c-50.727 24.018-85.213 74.74-85.333 133.531v0.016c0.232 52.814 27.844 99.129 69.366 125.506l0.608 0.361-61.44 61.44c-57.227-42.846-93.868-110.476-93.868-186.664 0-0.226 0-0.452 0.001-0.677v0.035c0.101-79.060 39.211-148.965 99.113-191.51l0.727-0.49h-57.173v-85.333h213.333v213.333h-85.333zM922.88 405.333h58.453v85.333h-213.333v-213.333h85.333v69.547c50.727-24.018 85.213-74.74 85.333-133.531v-0.016c-0.097-51.884-26.639-97.548-66.861-124.242l-0.552-0.344 61.013-61.013c55.932 43.077 91.616 110.068 91.616 185.392 0 79.404-39.653 149.546-100.238 191.704l-0.765 0.504zM85.333 106.667c0-23.564 19.103-42.667 42.667-42.667v0h341.333v85.333h-341.333c-23.564 0-42.667-19.103-42.667-42.667v0z" />
<glyph unicode="&#xe907;" glyph-name="appearance" d="M1004.8 628.48c0 97.707-128 298.667-192 298.667-33.707 0-85.333-58.88-128-128-64.647 40.080-143.063 63.835-227.027 63.835-16.067 0-31.931-0.87-47.547-2.565l1.934 0.17c-157.332-25.031-282.949-137.943-326.113-285.998l-0.713-2.856c-11.701-36.322-18.446-78.108-18.446-121.47 0-92.184 30.484-177.248 81.922-245.66l-0.756 1.051c79.24-105.967 204.209-173.969 345.086-174.506h52.14c41.077 4.837 75.583 29.172 94.397 63.36l0.323 0.64c20.053 46.507-7.68 93.44-32.427 135.253-12.57 18.649-23.015 40.153-30.24 63.085l-0.48 1.768c-3.998 14.359-6.296 30.848-6.296 47.874 0 35.448 9.961 68.57 27.236 96.719l-0.46-0.806c21.863 26.969 52.923 45.733 88.345 51.515l0.828 0.112c6.4-4.267 12.8-8.533 19.627-12.373v-447.147c0-23.564 19.103-42.667 42.667-42.667v0h128c23.564 0 42.667 19.103 42.667 42.667v0 449.28c51.173 25.993 85.626 78.24 85.626 138.534 0 3.349-0.106 6.673-0.316 9.969l0.023-0.45zM526.933 487.68c-26.049-40.55-41.526-90.046-41.526-143.157 0-23.415 3.008-46.127 8.659-67.771l-0.413 1.861c10.048-34.757 24.622-65.11 43.362-92.378l-0.696 1.071c11.376-16.557 20.803-35.654 27.308-56.056l0.425-1.544s-5.547-6.827-32-13.227h-37.973c-113.091 0.358-213.366 54.913-276.258 139.040l-0.648 0.907c-40.793 53.449-65.359 121.186-65.359 194.66 0 34.236 5.334 67.225 15.215 98.184l-0.629-2.284c33.884 119.036 132.347 208.363 254.155 228.442l1.845 0.251c10.78 1.267 23.376 2.040 36.132 2.133l0.134 0.001c0.118 0 0.257 0 0.397 0 68.828 0 132.898-20.372 186.51-55.415l-1.307 0.801c-13.406-27.684-21.894-60.030-23.447-94.183l-0.019-0.537c0.040-12.55 1.281-24.785 3.613-36.628l-0.199 1.214c0-4.693 0-9.387 3.413-14.080s0-8.96 3.413-13.227c-42.945-15.167-78.504-42.325-103.669-77.438l-0.437-0.642zM834.133 457.813v-384h-42.667v384zM812.8 543.147c-3.639-0.386-7.86-0.607-12.134-0.607-27.618 0-53.085 9.207-73.5 24.719l0.3-0.219s0 0 0 2.133c-13.083 13.988-21.117 32.84-21.117 53.569 0 2.019 0.076 4.020 0.226 6.001l-0.016-0.264c0.272 7.246 1.345 14.117 3.135 20.693l-0.148-0.64c0 4.267 2.133 8.96 3.413 14.080 0.813 1.799 1.545 3.933 2.081 6.143l0.053 0.257c2.133 6.827 4.693 13.227 7.68 20.48v0c3.413 7.68 7.253 16.213 11.947 24.747v0c22.833 44.819 48.803 83.463 78.772 118.592l-0.692-0.832c37.547-42.667 106.667-144.213 106.667-201.813 0-25.173 0-87.040-106.667-87.040zM493.227 649.813c0-35.346-28.654-64-64-64s-64 28.654-64 64c0 35.346 28.654 64 64 64s64-28.654 64-64zM365.227 479.147c0-35.346-28.654-64-64-64s-64 28.654-64 64c0 35.346 28.654 64 64 64s64-28.654 64-64zM450.56 265.813c0-35.346-28.654-64-64-64s-64 28.654-64 64c0 35.346 28.654 64 64 64s64-28.654 64-64z" />
<glyph unicode="&#xe908;" glyph-name="application" d="M384 789.333v-213.333h-213.333v213.333h213.333zM384 874.667h-213.333c-47.128 0-85.333-38.205-85.333-85.333v0-213.333c0-47.128 38.205-85.333 85.333-85.333v0h213.333c47.128 0 85.333 38.205 85.333 85.333v0 213.333c0 47.128-38.205 85.333-85.333 85.333v0zM853.333 789.333v-213.333h-213.333v213.333h213.333zM853.333 874.667h-213.333c-47.128 0-85.333-38.205-85.333-85.333v0-213.333c0-47.128 38.205-85.333 85.333-85.333v0h213.333c47.128 0 85.333 38.205 85.333 85.333v0 213.333c0 47.128-38.205 85.333-85.333 85.333v0zM384 320v-213.333h-213.333v213.333h213.333zM384 405.333h-213.333c-47.128 0-85.333-38.205-85.333-85.333v0-213.333c0-47.128 38.205-85.333 85.333-85.333v0h213.333c47.128 0 85.333 38.205 85.333 85.333v0 213.333c0 47.128-38.205 85.333-85.333 85.333v0zM853.333 320v-213.333h-213.333v213.333h213.333zM853.333 405.333h-213.333c-47.128 0-85.333-38.205-85.333-85.333v0-213.333c0-47.128 38.205-85.333 85.333-85.333v0h213.333c47.128 0 85.333 38.205 85.333 85.333v0 213.333c0 47.128-38.205 85.333-85.333 85.333v0z" />
<glyph unicode="&#xe909;" glyph-name="backplane_s_on" d="M768 192h-512c-28.277 0-51.2-22.923-51.2-51.2v0h614.4c0 28.277-22.923 51.2-51.2 51.2v0zM512 448c28.277 0 51.2 22.923 51.2 51.2v0 102.4c0 28.277-22.923 51.2-51.2 51.2s-51.2-22.923-51.2-51.2v0-102.4c0-28.277 22.923-51.2 51.2-51.2v0zM563.2 345.6c0-28.277-22.923-51.2-51.2-51.2s-51.2 22.923-51.2 51.2c0 28.277 22.923 51.2 51.2 51.2s51.2-22.923 51.2-51.2zM819.2 960h-614.4c-113.108 0-204.8-91.692-204.8-204.8v0-614.4c0-113.108 91.692-204.8 204.8-204.8v0h614.4c113.108 0 204.8 91.692 204.8 204.8v0 614.4c0 113.108-91.692 204.8-204.8 204.8v0zM819.2 89.6h-614.4c-28.277 0-51.2 22.923-51.2 51.2v0c0.233 37.465 20.55 70.132 50.717 87.802l0.483 0.262v270.336c0 169.662 137.538 307.2 307.2 307.2s307.2-137.538 307.2-307.2v0-270.336c30.65-17.932 50.967-50.599 51.2-88.031v-0.033c0-28.277-22.923-51.2-51.2-51.2v0z" />
<glyph unicode="&#xe90a;" glyph-name="ic_backup" d="M725.333 79.787c-50.727 24.018-85.213 74.74-85.333 133.531v0.016c0.232 52.814 27.844 99.129 69.366 125.506l0.608 0.361-61.44 61.44c-57.227-42.846-93.868-110.476-93.868-186.664 0-0.226 0-0.452 0.001-0.677v0.035c0.101-79.060 39.211-148.965 99.113-191.51l0.727-0.49h-57.173v-85.333h213.333v213.333h-85.333zM922.88 405.333h58.453v85.333h-213.333v-213.333h85.333v69.547c50.727-24.018 85.213-74.74 85.333-133.531v-0.016c-0.097-51.884-26.639-97.548-66.861-124.242l-0.552-0.344 61.013-61.013c55.932 43.077 91.616 110.068 91.616 185.392 0 79.404-39.653 149.546-100.238 191.704l-0.765 0.504zM85.333 618.667h85.333v-554.667h-85.333v554.667zM853.333 746.667h85.333v-213.333h-85.333v213.333zM85.333 746.667h85.333v-128h-85.333v128zM298.667 917.333h85.333v-170.667h-85.333v170.667zM170.667 618.667h512v-85.333h-512v85.333zM384 789.333h554.667v-85.333h-554.667v85.333zM170.667 149.333h298.667v-85.333h-298.667v85.333zM170.667 746.667h213.333v-85.333h-213.333v85.333zM384 917.333h170.667v-85.333h-170.667v85.333zM469.333 618.667h-128l-128 128h128l128-128zM682.667 789.333h-128l-128 128h128l128-128z" />
<glyph unicode="&#xe90b;" glyph-name="bad" d="M512 917.333c-259.206 0-469.333-210.128-469.333-469.333s210.128-469.333 469.333-469.333c259.206 0 469.333 210.128 469.333 469.333v0c0 259.206-210.128 469.333-469.333 469.333v0zM512 64c-212.077 0-384 171.923-384 384s171.923 384 384 384c212.077 0 384-171.923 384-384v0c0-212.077-171.923-384-384-384v0zM426.667 554.667c0-35.346-28.654-64-64-64s-64 28.654-64 64c0 35.346 28.654 64 64 64s64-28.654 64-64zM725.333 554.667c0-35.346-28.654-64-64-64s-64 28.654-64 64c0 35.346 28.654 64 64 64s64-28.654 64-64zM512 405.333c-117.76 0-213.333-76.373-213.333-170.667 0-23.564 19.103-42.667 42.667-42.667s42.667 19.103 42.667 42.667v0c0 46.080 58.453 85.333 128 85.333s128-39.253 128-85.333c0-23.564 19.103-42.667 42.667-42.667s42.667 19.103 42.667 42.667v0c0 94.293-95.573 170.667-213.333 170.667z" />
<glyph unicode="&#xe90c;" glyph-name="bios" d="M938.667 917.333h-853.333c-47.128 0-85.333-38.205-85.333-85.333v0-768c0-47.128 38.205-85.333 85.333-85.333v0h853.333c47.128 0 85.333 38.205 85.333 85.333v0 768c0 47.128-38.205 85.333-85.333 85.333v0zM938.667 64h-853.333v512h853.333zM938.667 661.333h-853.333v170.667h853.333zM810.667 789.333h85.333v-85.333h-85.333v85.333zM682.667 789.333h85.333v-85.333h-85.333v85.333zM554.667 789.333h85.333v-85.333h-85.333v85.333zM384 490.667h85.333v-341.333h-85.333v341.333zM896 234.667v128h-42.667v42.667h42.667v85.333h-128v-213.333h42.667v-42.667h-42.667v-85.333h128v85.333zM276.907 490.667h-148.907v-341.333h149.333c35.346 0 64 28.654 64 64v0 213.333c0 0 0 0.001 0 0.001 0 35.346-28.654 64-64 64-0.15 0-0.3-0.001-0.45-0.002h0.023zM256 405.333v-42.667h-42.667v42.667zM213.333 234.667v42.667h42.667v-42.667zM725.333 490.667h-213.333v-341.333h213.333zM640 234.667h-42.667v170.667h42.667z" />
<glyph unicode="&#xe90d;" glyph-name="bios_update" d="M810.667 789.333h85.333v-85.333h-85.333v85.333zM682.667 789.333h85.333v-85.333h-85.333v85.333zM554.667 789.333h85.333v-85.333h-85.333v85.333zM384 490.667h85.333v-341.333h-85.333v341.333zM341.333 213.333v213.333c0 35.346-28.654 64-64 64v0h-149.333v-341.333h149.333c35.346 0 64 28.654 64 64v0zM213.333 405.333h42.667v-42.667h-42.667zM213.333 277.333h42.667v-42.667h-42.667zM938.667 917.333h-853.333c-47.128 0-85.333-38.205-85.333-85.333v0-768c0-47.128 38.205-85.333 85.333-85.333v0h384v85.333h-384v512h938.667v256c0 47.128-38.205 85.333-85.333 85.333v0zM938.667 661.333h-853.333v170.667h853.333zM725.333 79.787c-50.727 24.018-85.213 74.74-85.333 133.531v0.016c0.232 52.814 27.844 99.129 69.366 125.506l0.608 0.361-61.44 61.44c-57.227-42.846-93.868-110.476-93.868-186.664 0-0.226 0-0.452 0.001-0.677v0.035c0.101-79.060 39.211-148.965 99.113-191.51l0.727-0.49h-57.173v-85.333h213.333v213.333h-85.333zM922.88 405.333h58.453v85.333h-213.333v-213.333h85.333v69.547c50.727-24.018 85.213-74.74 85.333-133.531v-0.016c-0.097-51.884-26.639-97.548-66.861-124.242l-0.552-0.344 61.013-61.013c55.932 43.077 91.616 110.068 91.616 185.392 0 79.404-39.653 149.546-100.238 191.704l-0.765 0.504zM512 490.667h85.333v-85.333h-85.333v85.333z" />
<glyph unicode="&#xe90e;" glyph-name="bmc" d="M640 576h-256v-256h256v256zM469.333 405.333v85.333h85.333v-85.333zM512 960c-23.564 0-42.667-19.103-42.667-42.667v0-170.667h-42.667v85.333c0 23.564-19.103 42.667-42.667 42.667s-42.667-19.103-42.667-42.667v0-85.333h-42.667c-47.128 0-85.333-38.205-85.333-85.333v0-42.667h-85.333c-23.564 0-42.667-19.103-42.667-42.667s19.103-42.667 42.667-42.667v0h85.333v-42.667h-170.667c-23.564 0-42.667-19.103-42.667-42.667s19.103-42.667 42.667-42.667v0h170.667v-42.667h-85.333c-23.564 0-42.667-19.103-42.667-42.667s19.103-42.667 42.667-42.667v0h85.333v-42.667c0-47.128 38.205-85.333 85.333-85.333v0h42.667v-85.333c0-23.564 19.103-42.667 42.667-42.667s42.667 19.103 42.667 42.667v0 85.333h42.667v-170.667c0-23.564 19.103-42.667 42.667-42.667s42.667 19.103 42.667 42.667v0 170.667h42.667v-85.333c0-23.564 19.103-42.667 42.667-42.667s42.667 19.103 42.667 42.667v0 85.333h42.667c47.128 0 85.333 38.205 85.333 85.333v0 42.667h85.333c23.564 0 42.667 19.103 42.667 42.667v0 0c0 23.564-19.103 42.667-42.667 42.667v0h-85.333v42.667h170.667c23.564 0 42.667 19.103 42.667 42.667s-19.103 42.667-42.667 42.667v0h-170.667v42.667h85.333c23.564 0 42.667 19.103 42.667 42.667s-19.103 42.667-42.667 42.667v0h-85.333v42.667c0 47.128-38.205 85.333-85.333 85.333v0h-42.667v85.333c0 23.564-19.103 42.667-42.667 42.667s-42.667-19.103-42.667-42.667v0-85.333h-42.667v170.667c0 23.564-19.103 42.667-42.667 42.667v0zM298.667 234.667v426.667h426.667v-426.667zM128 874.667v-42.667h-42.667v42.667h42.667zM170.667 960h-128c-23.564 0-42.667-19.103-42.667-42.667v0-128c0-23.564 19.103-42.667 42.667-42.667v0h128c23.564 0 42.667 19.103 42.667 42.667v0 128c0 23.564-19.103 42.667-42.667 42.667v0zM938.667 874.667v-42.667h-42.667v42.667h42.667zM981.333 960h-128c-23.564 0-42.667-19.103-42.667-42.667v0-128c0-23.564 19.103-42.667 42.667-42.667v0h128c23.564 0 42.667 19.103 42.667 42.667v0 128c0 23.564-19.103 42.667-42.667 42.667v0zM128 64v-42.667h-42.667v42.667h42.667zM170.667 149.333h-128c-23.564 0-42.667-19.103-42.667-42.667v0-128c0-23.564 19.103-42.667 42.667-42.667v0h128c23.564 0 42.667 19.103 42.667 42.667v0 128c0 23.564-19.103 42.667-42.667 42.667v0zM938.667 64v-42.667h-42.667v42.667h42.667zM981.333 149.333h-128c-23.564 0-42.667-19.103-42.667-42.667v0-128c0-23.564 19.103-42.667 42.667-42.667v0h128c23.564 0 42.667 19.103 42.667 42.667v0 128c0 23.564-19.103 42.667-42.667 42.667v0z" />
<glyph unicode="&#xe90f;" glyph-name="centralized" d="M572.16 448c0-33.225-26.935-60.16-60.16-60.16s-60.16 26.935-60.16 60.16c0 33.225 26.935 60.16 60.16 60.16s60.16-26.935 60.16-60.16zM981.333 490.667h-87.893c-20.58 178.206-160.567 318.193-336.99 338.606l-1.783 0.168v87.893h-85.333v-87.893c-178.206-20.58-318.193-160.567-338.606-336.99l-0.168-1.783h-87.893v-85.333h87.893c20.58-178.206 160.567-318.193 336.99-338.606l1.783-0.168v-87.893h85.333v87.893c178.206 20.58 318.193 160.567 338.606 336.99l0.168 1.783h87.893zM554.667 152.747v124.587h-85.333v-124.587c-130.875 19.558-233.029 121.713-252.385 250.946l-0.202 1.641h124.587v85.333h-124.587c19.558 130.875 121.713 233.029 250.946 252.385l1.641 0.202v-124.587h85.333v124.587c130.875-19.558 233.029-121.713 252.385-250.946l0.202-1.641h-124.587v-85.333h124.587c-19.558-130.875-121.713-233.029-250.946-252.385l-1.641-0.202z" />
<glyph unicode="&#xe910;" glyph-name="chassis_s_on" d="M512 755.2c-84.831 0-153.6-68.769-153.6-153.6v0-102.4h307.2v102.4c0 84.831-68.769 153.6-153.6 153.6v0zM512 345.6c-28.277 0-51.2-22.923-51.2-51.2v0-102.4c0-28.277 22.923-51.2 51.2-51.2s51.2 22.923 51.2 51.2v0 102.4c0 28.277-22.923 51.2-51.2 51.2v0zM819.2 960h-614.4c-113.108 0-204.8-91.692-204.8-204.8v0-614.4c0-113.108 91.692-204.8 204.8-204.8v0h614.4c113.108 0 204.8 91.692 204.8 204.8v0 614.4c0 113.108-91.692 204.8-204.8 204.8v0zM819.2 192c0-56.554-45.846-102.4-102.4-102.4v0h-409.6c-56.554 0-102.4 45.846-102.4 102.4v0 204.8c0 56.554 45.846 102.4 102.4 102.4v0 102.4c0 113.108 91.692 204.8 204.8 204.8s204.8-91.692 204.8-204.8v0-102.4c56.554 0 102.4-45.846 102.4-102.4v0z" />
<glyph unicode="&#xe911;" glyph-name="check_s" d="M810.667 469.333c0-176.731-143.269-320-320-320s-320 143.269-320 320c0 176.731 143.269 320 320 320s320-143.269 320-320z" />
<glyph unicode="&#xe912;" glyph-name="close" d="M798.293 673.707l-60.587 60.587-225.707-226.133-225.707 226.133-60.587-60.587 226.133-225.707-226.133-225.707 60.587-60.587 225.707 226.133 225.707-226.133 60.587 60.587-226.133 225.707 226.133 225.707z" />
<glyph unicode="&#xe913;" glyph-name="collapse_s" d="M768 789.333h-512c-47.128 0-85.333-38.205-85.333-85.333v0-512c0-47.128 38.205-85.333 85.333-85.333v0h512c47.128 0 85.333 38.205 85.333 85.333v0 512c0 47.128-38.205 85.333-85.333 85.333v0zM682.667 405.333h-341.333v85.333h341.333z" />
<glyph unicode="&#xe914;" glyph-name="connection" d="M512 704c-70.264-0.563-127.007-57.653-127.007-127.996 0-55.027 34.724-101.945 83.455-120.036l0.886-0.288v-477.013h85.333v477.013c49.617 18.379 84.34 65.296 84.34 120.324 0 70.343-56.743 127.434-126.954 127.996h-0.053zM512 533.333c-23.564 0-42.667 19.103-42.667 42.667s19.103 42.667 42.667 42.667c23.564 0 42.667-19.103 42.667-42.667v0c0-23.564-19.103-42.667-42.667-42.667v0zM328.96 776.96c-7.733 7.795-18.45 12.621-30.293 12.621s-22.56-4.826-30.291-12.618l-0.003-0.003c-51.235-51.519-82.905-122.541-82.905-200.96s31.67-149.441 82.918-200.973l-0.013 0.013c7.733-7.795 18.45-12.621 30.293-12.621s22.56 4.826 30.291 12.618l0.003 0.003c7.795 7.733 12.621 18.45 12.621 30.293s-4.826 22.56-12.618 30.291l-0.003 0.003c-35.953 35.912-58.193 85.545-58.193 140.373s22.24 104.462 58.191 140.371l0.002 0.002c7.795 7.733 12.621 18.45 12.621 30.293s-4.826 22.56-12.618 30.291l-0.003 0.003zM200.96 844.373c7.753 7.753 12.548 18.463 12.548 30.293 0 23.661-19.181 42.841-42.841 42.841-11.83 0-22.541-4.795-30.293-12.548v0c-84.020-84.266-135.97-200.546-135.97-328.96s51.951-244.695 135.982-328.971l-0.011 0.011c7.733-7.795 18.45-12.621 30.293-12.621s22.56 4.826 30.291 12.618l0.003 0.003c7.795 7.733 12.621 18.45 12.621 30.293s-4.826 22.56-12.618 30.291l-0.003 0.003c-68.636 68.704-111.083 163.582-111.083 268.373s42.447 199.669 111.086 268.376l-0.003-0.003zM755.627 776.96c-7.753 7.753-18.463 12.548-30.293 12.548-23.661 0-42.841-19.181-42.841-42.841 0-11.83 4.795-22.541 12.548-30.293v0c35.953-35.912 58.193-85.545 58.193-140.373s-22.24-104.462-58.191-140.371l-0.002-0.002c-7.795-7.733-12.621-18.45-12.621-30.293s4.826-22.56 12.618-30.291l0.003-0.003c7.733-7.795 18.45-12.621 30.293-12.621s22.56 4.826 30.291 12.618l0.003 0.003c51.235 51.519 82.905 122.541 82.905 200.96s-31.67 149.441-82.918 200.973l0.013-0.013zM883.627 904.96c-7.753 7.753-18.463 12.548-30.293 12.548-23.661 0-42.841-19.181-42.841-42.841 0-11.83 4.795-22.541 12.548-30.293v0c68.636-68.704 111.083-163.582 111.083-268.373s-42.447-199.669-111.086-268.376l0.003 0.003c-7.795-7.733-12.621-18.45-12.621-30.293s4.826-22.56 12.618-30.291l0.003-0.003c7.733-7.795 18.45-12.621 30.293-12.621s22.56 4.826 30.291 12.618l0.003 0.003c84.020 84.266 135.97 200.546 135.97 328.96s-51.951 244.695-135.982 328.971l0.011-0.011z" />
<glyph unicode="&#xe915;" glyph-name="cpu" d="M384 576h256v-256h-256v256zM832 448c11.782 0 21.333 9.551 21.333 21.333s-9.551 21.333-21.333 21.333v0h-64v85.333h64c11.782 0 21.333 9.551 21.333 21.333s-9.551 21.333-21.333 21.333v0h-64c0 47.128-38.205 85.333-85.333 85.333v0h-85.333v64c0 11.782-9.551 21.333-21.333 21.333s-21.333-9.551-21.333-21.333v0-64h-85.333v64c0 11.782-9.551 21.333-21.333 21.333s-21.333-9.551-21.333-21.333v0-64h-85.333c-47.128 0-85.333-38.205-85.333-85.333v0h-64c-11.782 0-21.333-9.551-21.333-21.333s9.551-21.333 21.333-21.333v0h64v-85.333h-64c-11.782 0-21.333-9.551-21.333-21.333s9.551-21.333 21.333-21.333v0h64v-85.333h-64c-11.782 0-21.333-9.551-21.333-21.333s9.551-21.333 21.333-21.333v0h64v-42.667c0-47.128 38.205-85.333 85.333-85.333v0h85.333v-64c0-11.782 9.551-21.333 21.333-21.333s21.333 9.551 21.333 21.333v0 64h85.333v-64c0-11.782 9.551-21.333 21.333-21.333s21.333 9.551 21.333 21.333v0 64h85.333c47.128 0 85.333 38.205 85.333 85.333v0 42.667h64c11.782 0 21.333 9.551 21.333 21.333s-9.551 21.333-21.333 21.333v0h-64v85.333zM682.667 277.333h-341.333v341.333h341.333z" />
<glyph unicode="&#xe916;" glyph-name="cpu_s_on" d="M768 652.8c0 28.277-22.923 51.2-51.2 51.2v0h-409.6c-28.277 0-51.2-22.923-51.2-51.2v0-409.6c0-28.277 22.923-51.2 51.2-51.2v0h409.6c28.277 0 51.2 22.923 51.2 51.2v0zM665.6 294.4h-307.2v307.2h307.2zM819.2 960h-614.4c-113.108 0-204.8-91.692-204.8-204.8v0-614.4c0-113.108 91.692-204.8 204.8-204.8v0h614.4c113.108 0 204.8 91.692 204.8 204.8v0 614.4c0 113.108-91.692 204.8-204.8 204.8v0zM896 499.2c14.138 0 25.6-11.462 25.6-25.6s-11.462-25.6-25.6-25.6v0h-76.8v-102.4h76.8c14.138 0 25.6-11.462 25.6-25.6s-11.462-25.6-25.6-25.6v0h-76.8v-51.2c0-56.554-45.846-102.4-102.4-102.4v0h-102.4v-76.8c0-14.138-11.462-25.6-25.6-25.6s-25.6 11.462-25.6 25.6v0 76.8h-102.4v-76.8c0-14.138-11.462-25.6-25.6-25.6s-25.6 11.462-25.6 25.6v0 76.8h-102.4c-56.554 0-102.4 45.846-102.4 102.4v0 51.2h-76.8c-14.138 0-25.6 11.462-25.6 25.6s11.462 25.6 25.6 25.6v0h76.8v102.4h-76.8c-14.138 0-25.6 11.462-25.6 25.6s11.462 25.6 25.6 25.6v0h76.8v102.4h-76.8c-14.138 0-25.6 11.462-25.6 25.6s11.462 25.6 25.6 25.6v0h76.8c0 56.554 45.846 102.4 102.4 102.4v0h102.4v76.8c0 14.138 11.462 25.6 25.6 25.6s25.6-11.462 25.6-25.6v0-76.8h102.4v76.8c0 14.138 11.462 25.6 25.6 25.6s25.6-11.462 25.6-25.6v0-76.8h102.4c56.554 0 102.4-45.846 102.4-102.4v0h76.8c14.138 0 25.6-11.462 25.6-25.6s-11.462-25.6-25.6-25.6v0h-76.8v-102.4z" />
<glyph unicode="&#xe917;" glyph-name="critical" d="M469.333 576h85.333v-256h-85.333v256zM469.333 277.333h85.333v-85.333h-85.333v85.333zM992.853 169.387l-407.040 705.28c-15.049 25.602-42.456 42.515-73.813 42.515s-58.764-16.914-73.596-42.116l-0.218-0.4-407.040-705.28c-7.188-12.239-11.433-26.957-11.433-42.667 0-47.098 38.155-85.283 85.241-85.333h814.085c47.091 0.050 85.246 38.236 85.246 85.333 0 15.709-4.245 30.427-11.651 43.069l0.218-0.403zM104.96 126.72l407.040 705.28 407.040-704.853z" />
<glyph unicode="&#xe918;" glyph-name="data-base-access" d="M201.387 197.973s0 0 0 0v0 42.667c65.287-35.18 142.093-57.943 223.684-63.066l1.596-0.080v57.173c0.196 10.099 1.119 19.824 2.722 29.319l-0.162-1.159c-139.52 14.507-227.84 64.853-227.84 99.84v54.613c78.934-41.621 172.401-66.319 271.576-66.986l0.211-0.001c11.385 12.262 24.45 22.745 38.878 31.143l0.802 0.431c2.125 20.032 6.793 38.376 13.718 55.569l-0.492-1.382c-8.96 0-17.067 0-26.027 0-179.627 0-298.667 63.147-298.667 104.96v50.773c81.078-44.504 177.662-70.683 280.361-70.683 6.437 0 12.851 0.103 19.238 0.307l-0.933-0.024c31.974 0.089 63.381 2.102 94.226 5.928l-3.773-0.382c36.318 30.265 83.384 48.745 134.757 49.066h0.070c12.95-0.195 25.454-1.584 37.562-4.061l-1.295 0.221c13.227 6.4 25.6 12.8 37.12 19.627v-29.44c33.86-13.042 62.472-33.151 85.141-58.659l0.192-0.221v208.213c0 103.68-170.667 187.733-384 187.733s-384-85.333-384-187.733v0-512c0-104.533 145.92-184.747 345.6-194.133-18.758 23.932-31.35 53.53-34.918 85.847l-0.069 0.767c-139.093 14.507-225.28 67.413-225.28 105.813zM500.053 814.080c185.6 0 298.667-72.107 298.667-103.68s-113.067-103.68-298.667-103.68-298.667 72.107-298.667 103.68 112.64 103.68 298.667 103.68zM896 355.413c0.098 1.086 0.154 2.35 0.154 3.627s-0.056 2.54-0.166 3.788l0.011-0.162c-1.179 93.354-77.132 168.577-170.654 168.577-77.243 0-142.502-51.316-163.543-121.716l-0.31-1.208c0-2.133 0-4.267 0-6.4-0.097-1.721-0.152-3.734-0.152-5.76s0.055-4.039 0.164-6.038l-0.012 0.278c-2.95-7.951-5.335-17.304-6.736-26.975l-0.090-0.759c-0.115-1.024-0.18-2.211-0.18-3.413s0.065-2.389 0.193-3.558l-0.013 0.145c-50.141-18.102-85.334-65.281-85.334-120.68 0-0.174 0-0.347 0.001-0.52v0.027-128c-0.2-2.681-0.314-5.807-0.314-8.96s0.114-6.279 0.338-9.375l-0.024 0.415c1.279-8.713 3.214-16.483 5.82-23.938l-0.273 0.898c0.088-0.449 0.139-0.965 0.139-1.493s-0.050-1.044-0.147-1.544l0.008 0.051c2.56-6.4 5.547-12.373 8.533-18.347 1.070-1.478 2.066-3.157 2.904-4.926l0.083-0.194c3.341-5.031 6.568-9.343 10.010-13.469l-0.197 0.242c2.133-2.56 3.84-5.12 5.973-7.253 3.068-3.285 6.418-6.23 10.038-8.823l0.202-0.137c2.067-2.343 4.301-4.442 6.716-6.318l0.11-0.082c20.911-15.474 47.21-24.769 75.68-24.769 0.844 0 1.686 0.008 2.526 0.024l-0.126-0.002h256c70.692 0 128 57.308 128 128v0 128c0 0.020 0 0.044 0 0.067 0 55.398-35.193 102.577-84.442 120.398l-0.891 0.282zM725.333 448c27.368-0.068 51.699-13.009 67.268-33.085l0.145-0.195c2.111-2.51 4.085-5.299 5.818-8.247l0.156-0.286c3.345-5.524 6.115-11.906 7.98-18.664l0.126-0.536c2.285-7.244 3.677-15.589 3.839-24.235l0.001-0.085h-170.667c0 47.128 38.205 85.333 85.333 85.333v0zM896 106.667c0-23.564-19.103-42.667-42.667-42.667v0h-256c-11.235 0.040-21.44 4.416-29.036 11.541l0.023-0.021v2.133c-2.955 3.010-5.393 6.54-7.161 10.439l-0.092 0.228s0 0 0 2.133c-3.082 4.624-5.323 10.083-6.362 15.956l-0.038 0.257v128c0.142 10.873 4.33 20.742 11.124 28.194l-0.030-0.034c7.755 8.797 19 14.36 31.548 14.506h256.026c12.081-0.048 22.971-5.109 30.704-13.21l0.016-0.017c7.354-7.622 11.9-17.995 11.947-29.431v-0.009zM682.667 234.24v-128h85.333v128.427h-85.333v-0.427z" />
<glyph unicode="&#xe919;" glyph-name="delete" d="M757.333 661.333h-490.667c-0.988 0.042-2.148 0.067-3.313 0.067-45.479 0-82.347-36.868-82.347-82.347 0-2.577 0.118-5.127 0.35-7.643l-0.024 0.323 65.707-479.573c7.17-40.484 42.087-70.836 84.093-70.836 0.436 0 0.872 0.003 1.306 0.010l-0.066-0.001h360.107c0.369-0.006 0.804-0.009 1.241-0.009 42.006 0 76.923 30.352 84.017 70.321l0.076 0.515 64.427 479.573c0.208 2.193 0.326 4.743 0.326 7.32 0 45.479-36.868 82.347-82.347 82.347-1.165 0-2.324-0.024-3.478-0.072l0.165 0.005zM692.053 106.667h-360.96l-63.573 469.333h488.96l-63.573-469.333zM512 874.667c-23.564 0-42.667-19.103-42.667-42.667v0-42.667h-256c-23.564 0-42.667-19.103-42.667-42.667s19.103-42.667 42.667-42.667v0h597.333c23.564 0 42.667 19.103 42.667 42.667s-19.103 42.667-42.667 42.667v0h-256v42.667c0 23.564-19.103 42.667-42.667 42.667v0zM426.667 490.667c-23.564 0-42.667-19.103-42.667-42.667v0-213.333c0-23.564 19.103-42.667 42.667-42.667s42.667 19.103 42.667 42.667v0 213.333c0 23.564-19.103 42.667-42.667 42.667v0zM597.333 490.667c-23.564 0-42.667-19.103-42.667-42.667v0-213.333c0-23.564 19.103-42.667 42.667-42.667s42.667 19.103 42.667 42.667v0 213.333c0 23.564-19.103 42.667-42.667 42.667v0z" />
<glyph unicode="&#xe91a;" glyph-name="deploy_agents" d="M853.333 192v170.667h-85.333v-170.667h-170.667v-85.333h170.667v-170.667h85.333v170.667h170.667v85.333h-170.667zM512 405.333c37.442-0.337 70.996-16.698 94.188-42.547l0.106-0.12h100.693c-16.717 37.666-42.739 68.622-75.215 90.834l-0.732 0.473c31.862 31.037 51.627 74.359 51.627 122.297 0 94.257-76.41 170.667-170.667 170.667s-170.667-76.41-170.667-170.667c0-47.938 19.765-91.26 51.59-122.261l0.037-0.036c-57.1-38.786-94.154-103.371-94.293-176.619v-0.021h-128v512h682.667v-341.333h85.333v341.333c0 47.128-38.205 85.333-85.333 85.333v0h-682.667c-47.128 0-85.333-38.205-85.333-85.333v0-512c0-47.128 38.205-85.333 85.333-85.333v0h341.333v85.333h-128c0 70.692 57.308 128 128 128v0zM512 661.333c47.128 0 85.333-38.205 85.333-85.333s-38.205-85.333-85.333-85.333c-47.128 0-85.333 38.205-85.333 85.333v0c0 47.128 38.205 85.333 85.333 85.333v0zM85.333 106.667c0-23.564 19.103-42.667 42.667-42.667v0h384v85.333h-384c-23.564 0-42.667-19.103-42.667-42.667v0z" />
<glyph unicode="&#xe91b;" glyph-name="deployment" d="M704 405.333h-384c-23.564 0-42.667-19.103-42.667-42.667s19.103-42.667 42.667-42.667v0h384c23.564 0 42.667 19.103 42.667 42.667s-19.103 42.667-42.667 42.667v0zM682.667 789.333v-256h-341.333v256h341.333zM682.667 874.667h-341.333c-47.128 0-85.333-38.205-85.333-85.333v0-256c0-47.128 38.205-85.333 85.333-85.333v0h341.333c47.128 0 85.333 38.205 85.333 85.333v0 256c0 47.128-38.205 85.333-85.333 85.333v0zM256 192v-85.333h-85.333v85.333h85.333zM298.667 277.333h-170.667c-23.564 0-42.667-19.103-42.667-42.667v0-170.667c0-23.564 19.103-42.667 42.667-42.667v0h170.667c23.564 0 42.667 19.103 42.667 42.667v0 170.667c0 23.564-19.103 42.667-42.667 42.667v0zM554.667 192v-85.333h-85.333v85.333h85.333zM597.333 277.333h-170.667c-23.564 0-42.667-19.103-42.667-42.667v0-170.667c0-23.564 19.103-42.667 42.667-42.667v0h170.667c23.564 0 42.667 19.103 42.667 42.667v0 170.667c0 23.564-19.103 42.667-42.667 42.667v0zM853.333 192v-85.333h-85.333v85.333h85.333zM896 277.333h-170.667c-23.564 0-42.667-19.103-42.667-42.667v0-170.667c0-23.564 19.103-42.667 42.667-42.667v0h170.667c23.564 0 42.667 19.103 42.667 42.667v0 170.667c0 23.564-19.103 42.667-42.667 42.667v0z" />
<glyph unicode="&#xe91c;" glyph-name="device_access" d="M938.667 312.747c0.098 1.086 0.154 2.35 0.154 3.627s-0.056 2.54-0.166 3.788l0.011-0.162c0 94.257-76.41 170.667-170.667 170.667s-170.667-76.41-170.667-170.667v0c-0.098-1.086-0.154-2.35-0.154-3.627s0.056-2.54 0.166-3.788l-0.011 0.162c-50.14-18.103-85.333-65.281-85.333-120.68 0-0.024 0-0.047 0-0.071v0.004-128c0-70.692 57.308-128 128-128v0h256c70.692 0 128 57.308 128 128v0 128c0 0.020 0 0.044 0 0.067 0 55.398-35.193 102.577-84.442 120.398l-0.891 0.282zM768 405.333c47.128 0 85.333-38.205 85.333-85.333v0h-170.667c0 47.128 38.205 85.333 85.333 85.333v0zM938.667 64c0-23.564-19.103-42.667-42.667-42.667v0h-256c-23.564 0-42.667 19.103-42.667 42.667v0 128c0 23.564 19.103 42.667 42.667 42.667v0h256c23.564 0 42.667-19.103 42.667-42.667v0zM725.333 192h85.333v-128h-85.333v128zM692.907 640c0 0.056 0 0.122 0 0.189 0 141.385-114.615 256-256 256s-256-114.615-256-256c0-84.584 41.022-159.587 104.256-206.2l0.704-0.495c-113.473-56.905-190.050-172.227-190.293-305.46v-0.033h85.333c0 141.385 114.615 256 256 256v0c29.518-0.028 57.823-5.184 84.085-14.626l-1.738 0.546 133.547 133.547c25.099 38.604 40.047 85.817 40.107 136.517v0.016zM436.907 469.333c-94.257 0-170.667 76.41-170.667 170.667s76.41 170.667 170.667 170.667c94.257 0 170.667-76.41 170.667-170.667v0c0-94.257-76.41-170.667-170.667-170.667v0z" />
<glyph unicode="&#xe91d;" glyph-name="dimm" d="M896 572.16v89.173c0 47.128-38.205 85.333-85.333 85.333v0h-554.667c-47.128 0-85.333-38.205-85.333-85.333v0-89.173c25.239-8.808 43.022-32.407 43.022-60.16s-17.783-51.352-42.577-60.024l-0.446-0.136v-89.173c0-47.128 38.205-85.333 85.333-85.333v0h554.667c47.128 0 85.333 38.205 85.333 85.333v0 89.173c-25.239 8.808-43.022 32.407-43.022 60.16s17.783 51.352 42.577 60.024l0.446 0.136zM384 448h-42.667v170.667h42.667zM554.667 448h-42.667v170.667h42.667zM725.333 448h-42.667v170.667h42.667zM213.333 234.667h213.333v-85.333h-170.667c-23.564 0-42.667 19.103-42.667 42.667v0 42.667zM469.333 234.667h384v-42.667c0-23.564-19.103-42.667-42.667-42.667v0h-341.333v85.333z" />
<glyph unicode="&#xe91e;" glyph-name="dimm_s_on" d="M640 550.4c-14.138 0-25.6-11.462-25.6-25.6v0-102.4c0-14.138 11.462-25.6 25.6-25.6s25.6 11.462 25.6 25.6v0 102.4c0 14.138-11.462 25.6-25.6 25.6v0zM486.4 550.4c-14.138 0-25.6-11.462-25.6-25.6v0-102.4c0-14.138 11.462-25.6 25.6-25.6s25.6 11.462 25.6 25.6v0 102.4c0 14.138-11.462 25.6-25.6 25.6v0zM332.8 550.4c-14.138 0-25.6-11.462-25.6-25.6v0-102.4c0-14.138 11.462-25.6 25.6-25.6s25.6 11.462 25.6 25.6v0 102.4c0 14.138-11.462 25.6-25.6 25.6v0zM819.2 960h-614.4c-113.108 0-204.8-91.692-204.8-204.8v0-614.4c0-113.108 91.692-204.8 204.8-204.8v0h614.4c113.108 0 204.8 91.692 204.8 204.8v0 614.4c0 113.108-91.692 204.8-204.8 204.8v0zM358.4 140.8h-102.4c-28.277 0-51.2 22.923-51.2 51.2v0h204.8c0-28.277-22.923-51.2-51.2-51.2v0zM768 140.8h-256c-28.277 0-51.2 22.923-51.2 51.2v0h358.4c0-28.277-22.923-51.2-51.2-51.2v0zM870.4 536.064c-30.231-18.169-50.146-50.791-50.146-88.064s19.914-69.895 49.684-87.806l0.462-0.258v-65.536c0-28.277-22.923-51.2-51.2-51.2v0h-614.4c-28.277 0-51.2 22.923-51.2 51.2v0 65.536c30.231 18.169 50.146 50.791 50.146 88.064s-19.914 69.895-49.684 87.806l-0.462 0.258v116.736c0 28.277 22.923 51.2 51.2 51.2v0h614.4c28.277 0 51.2-22.923 51.2-51.2v0z" />
<glyph unicode="&#xe91f;" glyph-name="disable" d="M512 874.667c-235.641 0-426.667-191.025-426.667-426.667s191.025-426.667 426.667-426.667c235.641 0 426.667 191.025 426.667 426.667v0c0 235.641-191.025 426.667-426.667 426.667v0zM512 789.333c0.125 0 0.272 0 0.42 0 79.067 0 151.792-27.155 209.357-72.648l-0.71 0.541-478.293-478.293c-44.951 56.854-72.107 129.579-72.107 208.646 0 0.148 0 0.295 0 0.443v-0.023c0 188.513 152.82 341.333 341.333 341.333v0zM512 106.667c-0.125 0-0.272 0-0.42 0-79.067 0-151.792 27.155-209.357 72.648l0.71-0.541 478.293 478.293c44.951-56.854 72.107-129.579 72.107-208.646 0-0.148 0-0.295 0-0.443v0.023c0-188.513-152.82-341.333-341.333-341.333v0z" />
<glyph unicode="&#xe920;" glyph-name="edit" d="M341.333 415.573v-180.907h180.907l490.24 490.24-180.907 180.907-490.24-490.24zM831.573 785.067l60.16-60.16-30.293-30.293-60.16 60.16zM740.693 694.613l60.587-60.587-314.453-314.027h-60.16v60.16zM810.667 149.333h-597.333v597.333h341.333v85.333h-341.333c-47.128 0-85.333-38.205-85.333-85.333v0-597.333c0-47.128 38.205-85.333 85.333-85.333v0h597.333c47.128 0 85.333 38.205 85.333 85.333v0 256h-85.333z" />
<glyph unicode="&#xe921;" glyph-name="ic_empty" d="M928 376c0.002 0.087 0.003 0.191 0.003 0.294 0 4.067-1.518 7.78-4.017 10.603l0.015-0.017-176 192c-2.931 3.155-7.102 5.122-11.733 5.122-0.094 0-0.187-0.001-0.281-0.002h-447.986c-0.032 0-0.070 0-0.108 0-4.63 0-8.801-1.967-11.723-5.11l-0.009-0.010-176-192c-2.58-2.831-4.16-6.612-4.16-10.762 0-0.041 0-0.083 0-0.124v0.006-240c0-35.346 28.654-64 64-64v0h704c35.346 0 64 28.654 64 64v0 240zM295.2 552h433.76l161.28-176h-234.24v-96h-288v96h-234.24zM896 136c0-17.673-14.327-32-32-32v0h-704c-17.673 0-32 14.327-32 32v0 208h208v-64c0-17.673 14.327-32 32-32v0h288c17.673 0 32 14.327 32 32v0 64h208zM496 856h32v-176h-32v176zM225.733 775.573l22.627 22.627 101.823-101.823-22.627-22.627-101.823 101.823zM689.831 696.314l101.823 101.823 22.627-22.627-101.823-101.823-22.627 22.627z" />
<glyph unicode="&#xe922;" glyph-name="enviroment-info" d="M554.667 661.333c0-23.564-19.103-42.667-42.667-42.667s-42.667 19.103-42.667 42.667c0 23.564 19.103 42.667 42.667 42.667s42.667-19.103 42.667-42.667zM554.667 490.667v85.333h-128v-85.333h42.667v-170.667h-42.667v-85.333h170.667v85.333h-42.667v170.667zM512 21.333c-235.641 0-426.667 191.025-426.667 426.667s191.025 426.667 426.667 426.667c235.641 0 426.667-191.025 426.667-426.667v0c0-235.641-191.025-426.667-426.667-426.667v0zM512 789.333c-188.513 0-341.333-152.82-341.333-341.333s152.82-341.333 341.333-341.333c188.513 0 341.333 152.82 341.333 341.333v0c0 188.513-152.82 341.333-341.333 341.333v0z" />
<glyph unicode="&#xe923;" glyph-name="event-log" d="M910.080 576l-369.92 328.533c-7.215 7.387-17.075 12.164-28.046 12.795l-0.114 0.005h-341.333c-47.128 0-85.333-38.205-85.333-85.333v0-768c0-47.128 38.205-85.333 85.333-85.333v0h682.667c47.128 0 85.333 38.205 85.333 85.333v0 450.133c-0.56 24.613-11.457 46.575-28.503 61.793l-0.084 0.073zM554.667 779.52l229.12-203.52h-229.12zM512 819.2l6.4-5.547c-2.94 1.074-5.483 2.518-7.736 4.31l0.056-0.043zM853.333 64h-682.667v768h298.667v-341.333h384zM298.667 448h-85.333v-298.667h128v85.333h-42.667v213.333zM384 448v-298.667h213.333v298.667h-213.333zM512 234.667h-42.667v128h42.667zM810.667 149.333v170.667h-42.667v-85.333h-42.667v128h85.333v85.333h-170.667v-298.667h170.667z" />
<glyph unicode="&#xe924;" glyph-name="expand" d="M419.413 415.573l-248.747-248.747v110.507h-85.333v-256h256v85.333h-110.507l248.747 248.747-60.16 60.16zM938.667 874.667h-256v-85.333h110.507l-248.747-248.747 60.16-60.16 248.747 248.747v-110.507h85.333v256z" />
<glyph unicode="&#xe925;" glyph-name="expand_s" d="M768 789.333h-512c-47.128 0-85.333-38.205-85.333-85.333v0-512c0-47.128 38.205-85.333 85.333-85.333v0h512c47.128 0 85.333 38.205 85.333 85.333v0 512c0 47.128-38.205 85.333-85.333 85.333v0zM682.667 405.333h-128v-128h-85.333v128h-128v85.333h128v128h85.333v-128h128z" />
<glyph unicode="&#xe926;" glyph-name="export" d="M810.667 405.333v-256h-597.333v256h-85.333v-298.667c0-23.564 19.103-42.667 42.667-42.667v0h682.667c23.564 0 42.667 19.103 42.667 42.667v0 298.667zM469.333 686.507v-409.173h85.333v409.173l97.707-98.133 60.587 60.587-200.96 200.533-200.96-200.533 60.587-60.587 97.707 98.133z" />
<glyph unicode="&#xe927;" glyph-name="fan" d="M593.92 426.24c2.141 6.498 3.388 13.979 3.413 21.747v0.013h256c-0.826 93.627-76.917 169.208-170.66 169.208-63.628 0-119.124-34.82-148.471-86.444l-0.441-0.844c-6.498 2.141-13.979 3.388-21.747 3.413h-0.013v256c-93.627-0.826-169.208-76.917-169.208-170.66 0-63.628 34.82-119.124 86.444-148.471l0.844-0.441c-2.141-6.498-3.388-13.979-3.413-21.747v-0.013h-256c0.826-93.627 76.917-169.208 170.66-169.208 63.628 0 119.124 34.82 148.471 86.444l0.441 0.844c6.498-2.141 13.979-3.388 21.747-3.413h0.013v-256c93.627 0.826 169.208 76.917 169.208 170.66 0 63.628-34.82 119.124-86.444 148.471l-0.844 0.441zM512 405.333c-23.564 0-42.667 19.103-42.667 42.667s19.103 42.667 42.667 42.667c23.564 0 42.667-19.103 42.667-42.667v0c0-23.564-19.103-42.667-42.667-42.667v0z" />
<glyph unicode="&#xe928;" glyph-name="fan_s_on" d="M819.2 960h-614.4c-113.108 0-204.8-91.692-204.8-204.8v0-614.4c0-113.108 91.692-204.8 204.8-204.8v0h614.4c113.108 0 204.8 91.692 204.8 204.8v0 614.4c0 113.108-91.692 204.8-204.8 204.8v0zM614.4 448c-0.031-9.337-1.527-18.314-4.27-26.728l0.174 0.616c62.961-35.747 104.745-102.342 104.745-178.695 0-112.492-90.697-203.801-202.955-204.792l-0.094-0.001v307.2c-9.337 0.031-18.314 1.527-26.728 4.27l0.616-0.174c-35.747-62.961-102.342-104.745-178.695-104.745-112.492 0-203.801 90.697-204.792 202.955l-0.001 0.094h307.2c0.031 9.337 1.527 18.314 4.27 26.728l-0.174-0.616c-62.961 35.747-104.745 102.342-104.745 178.695 0 112.492 90.697 203.801 202.955 204.792l0.094 0.001v-307.2c9.337-0.031 18.314-1.527 26.728-4.27l-0.616 0.174c35.747 62.961 102.342 104.745 178.695 104.745 112.492 0 203.801-90.697 204.792-202.955l0.001-0.094zM563.2 448c0-28.277-22.923-51.2-51.2-51.2s-51.2 22.923-51.2 51.2c0 28.277 22.923 51.2 51.2 51.2s51.2-22.923 51.2-51.2z" />
<glyph unicode="&#xe929;" glyph-name="feedback" d="M725.333 448c-23.564 0-42.667-19.103-42.667-42.667v0c0-40.107-72.96-85.333-170.667-85.333s-170.667 45.227-170.667 85.333c0 23.564-19.103 42.667-42.667 42.667s-42.667-19.103-42.667-42.667v0c0-95.573 112.64-170.667 256-170.667s256 75.093 256 170.667c0 23.564-19.103 42.667-42.667 42.667v0zM512 917.333c-2.963 0.069-6.455 0.108-9.955 0.108-249.773 0-453.002-199.279-459.366-447.518l-0.012-0.59c0.231-96.51 32.246-185.499 86.126-257.1l-0.792 1.1v-149.333c-0.001-0.11-0.002-0.241-0.002-0.371 0-12.752 5.594-24.197 14.462-32.015l0.047-0.040c7.624-6.243 17.429-10.081 28.125-10.24h6.008l178.773 25.6c46.231-16.228 99.532-25.603 155.023-25.603 0.55 0 1.099 0.001 1.648 0.003h-0.085c2.963-0.069 6.455-0.108 9.955-0.108 249.773 0 453.002 199.279 459.366 447.518l0.012 0.59c-6.377 248.829-209.605 448.108-459.378 448.108-3.501 0-6.992-0.039-10.474-0.117l0.519 0.009zM512 106.667c-49.46 0.041-96.826 8.953-140.61 25.231l2.797-0.911c-4.166 1.623-8.988 2.563-14.029 2.563-0.168 0-0.335-0.001-0.503-0.003h-5.948l-140.373-20.48v113.92c-0.192 9.976-3.525 19.138-9.048 26.577l0.088-0.124c-47.408 58.52-76.177 133.828-76.373 215.85v0.043c6.333 201.7 171.36 362.8 374.013 362.8 3.512 0 7.012-0.048 10.5-0.144l-0.514 0.011c2.975 0.085 6.475 0.133 9.987 0.133 202.653 0 367.68-161.1 373.999-362.219l0.014-0.581c-6.333-201.7-171.36-362.8-374.013-362.8-3.512 0-7.012 0.048-10.5 0.144l0.514-0.011z" />
<glyph unicode="&#xe92a;" glyph-name="file" d="M933.12 542.72c-0.923 10.128-6.037 18.905-13.57 24.685l-0.083 0.061c-2.914 2.967-5.975 5.757-9.184 8.373l-0.203 0.16-369.92 328.533c-7.215 7.387-17.075 12.164-28.046 12.795l-0.114 0.005h-341.333c-47.128 0-85.333-38.205-85.333-85.333v0-768c0-47.128 38.205-85.333 85.333-85.333v0h682.667c47.128 0 85.333 38.205 85.333 85.333v0 450.133c-0.118 10.314-2.143 20.122-5.739 29.134l0.193-0.547zM750.080 576h-195.413v195.84zM170.667 64v768h298.667v-341.333h384v-426.667zM256 405.333h213.333v-85.333h-213.333v85.333zM256 234.667h512v-85.333h-512v85.333z" />
<glyph unicode="&#xe92b;" glyph-name="filter-config" d="M426.667 789.333c-9.951 73.206-72.057 129.026-147.2 129.026s-137.249-55.82-147.114-128.257l-0.086-0.769h-89.6v-85.333h100.267c24.291-50.858 75.315-85.369 134.4-85.369s110.109 34.511 134.015 84.475l0.385 0.894h569.6v85.333zM277.333 704c-35.346 0-64 28.654-64 64s28.654 64 64 64c35.346 0 64-28.654 64-64v0c0-35.346-28.654-64-64-64v0zM746.667 576c-59.046-0.104-110.019-34.558-134.013-84.441l-0.387-0.893h-569.6v-85.333h556.8c4.342-78.507 69.062-140.523 148.267-140.523s143.924 62.016 148.25 140.14l0.017 0.384h85.333v85.333h-100.267c-24.381 50.776-75.355 85.23-134.386 85.333h-0.014zM746.667 362.667c-35.346 0-64 28.654-64 64s28.654 64 64 64c35.346 0 64-28.654 64-64v0c0-35.346-28.654-64-64-64v0zM405.333 277.333c-59.046-0.104-110.019-34.558-134.013-84.441l-0.387-0.893h-228.267v-85.333h215.467c4.342-78.507 69.062-140.523 148.267-140.523s143.924 62.016 148.25 140.14l0.017 0.384h426.667v85.333h-441.6c-24.381 50.776-75.355 85.23-134.386 85.333h-0.014zM405.333 64c-35.346 0-64 28.654-64 64s28.654 64 64 64c35.346 0 64-28.654 64-64v0c0-35.346-28.654-64-64-64v0z" />
<glyph unicode="&#xe92c;" glyph-name="filter" d="M874.667 725.333v-85.333l-238.080-152.747c-23.76-15.414-39.256-41.809-39.256-71.824 0-0.249 0.001-0.499 0.003-0.747v0.038-222.72l-128-91.733v314.453c0 0.084 0 0.184 0 0.284 0 30.014-15.495 56.408-38.922 71.621l-0.331 0.202-238.080 152.747v85.333h682.667zM874.667 810.24h-682.667c-47.128 0-85.333-38.205-85.333-85.333v0-85.333c-0.001-0.164-0.002-0.357-0.002-0.551 0-27.256 12.778-51.527 32.671-67.149l0.184-0.14 244.48-157.013v-313.173c0-47.128 38.205-85.333 85.333-85.333v0c18.459 0.219 35.464 6.266 49.308 16.382l-0.242-0.168 128 91.733c21.533 15.261 35.592 39.84 36.265 67.737l0.002 0.103v221.867l244.48 157.867c20.076 15.762 32.853 40.033 32.853 67.288 0 0.044 0 0.088 0 0.132v-0.007 85.333c0 47.128-38.205 85.333-85.333 85.333v0z" />
<glyph unicode="&#xe92d;" glyph-name="focus_software" d="M810.667 789.333h85.333v-85.333h-85.333v85.333zM682.667 789.333h85.333v-85.333h-85.333v85.333zM554.667 789.333h85.333v-85.333h-85.333v85.333zM938.667 917.333h-853.333c-47.128 0-85.333-38.205-85.333-85.333v0-768c0-47.128 38.205-85.333 85.333-85.333v0h469.333v85.333h-469.333v512h853.333v-170.667h85.333v426.667c0 47.128-38.205 85.333-85.333 85.333v0zM938.667 661.333h-853.333v170.667h853.333zM331.52 517.973c-7.882 9.459-19.666 15.435-32.846 15.435-10.422 0-19.971-3.736-27.38-9.943l0.067 0.054-128-106.667c-9.464-7.882-15.443-19.669-15.443-32.853s5.98-24.971 15.375-32.798l0.069-0.056 128-106.667c7.328-6.107 16.843-9.813 27.223-9.813 0.029 0 0.059 0 0.088 0h-0.005c0.021 0 0.045 0 0.069 0 13.146 0 24.903 5.945 32.73 15.293l0.054 0.067c6.152 7.343 9.888 16.892 9.888 27.314 0 13.18-5.976 24.964-15.366 32.791l-0.069 0.056-88.747 73.813 88.747 73.813c9.459 7.882 15.435 19.666 15.435 32.846 0 10.422-3.736 19.971-9.943 27.38l0.054-0.067zM472.32 506.453l-85.333-213.333c-1.921-4.681-3.037-10.114-3.037-15.808 0-17.897 11.020-33.221 26.644-39.556l0.286-0.102c4.646-1.89 10.036-2.987 15.683-2.987 0.036 0 0.073 0 0.109 0h-0.006c0.012 0 0.027 0 0.041 0 17.878 0 33.189 10.996 39.536 26.595l0.103 0.285 85.333 213.333c1.914 4.675 3.025 10.101 3.025 15.787 0 23.585-19.12 42.705-42.705 42.705-17.9 0-33.228-11.013-39.577-26.633l-0.103-0.286zM762.88 443.733l-95.573 79.787c-7.328 6.107-16.843 9.813-27.223 9.813-0.029 0-0.059 0-0.088 0h0.005c-0.021 0-0.045 0-0.069 0-13.146 0-24.903-5.945-32.73-15.293l-0.054-0.067c-6.152-7.343-9.888-16.892-9.888-27.314 0-13.18 5.976-24.964 15.366-32.791l0.069-0.056 55.467-46.080c27.386 15.057 59.238 26.241 92.993 31.767l1.727 0.233zM853.333 314.027v48.64h-85.333v-48.64c-59.846-15.993-106.033-62.181-121.754-120.833l-0.272-1.193h-48.64v-85.333h48.64c15.993-59.846 62.181-106.033 120.833-121.754l1.193-0.272v-48.64h85.333v48.64c59.846 15.993 106.033 62.181 121.754 120.833l0.272 1.193h48.64v85.333h-48.64c-15.993 59.846-62.181 106.033-120.833 121.754l-1.193 0.272zM810.667 64c-47.128 0-85.333 38.205-85.333 85.333s38.205 85.333 85.333 85.333c47.128 0 85.333-38.205 85.333-85.333v0c0-47.128-38.205-85.333-85.333-85.333v0zM853.333 149.333c0-23.564-19.103-42.667-42.667-42.667s-42.667 19.103-42.667 42.667c0 23.564 19.103 42.667 42.667 42.667s42.667-19.103 42.667-42.667z" />
<glyph unicode="&#xe92e;" glyph-name="good" d="M512 917.333c-259.206 0-469.333-210.128-469.333-469.333s210.128-469.333 469.333-469.333c259.206 0 469.333 210.128 469.333 469.333v0c0 259.206-210.128 469.333-469.333 469.333v0zM512 64c-212.077 0-384 171.923-384 384s171.923 384 384 384c212.077 0 384-171.923 384-384v0c0-212.077-171.923-384-384-384v0zM426.667 554.667c0-35.346-28.654-64-64-64s-64 28.654-64 64c0 35.346 28.654 64 64 64s64-28.654 64-64zM725.333 554.667c0-35.346-28.654-64-64-64s-64 28.654-64 64c0 35.346 28.654 64 64 64s64-28.654 64-64zM682.667 362.667c-23.564 0-42.667-19.103-42.667-42.667v0c0-46.080-58.453-85.333-128-85.333s-128 39.253-128 85.333c0 23.564-19.103 42.667-42.667 42.667s-42.667-19.103-42.667-42.667v0c0-94.293 95.573-170.667 213.333-170.667s213.333 76.373 213.333 170.667c0 23.564-19.103 42.667-42.667 42.667v0z" />
<glyph unicode="&#xe92f;" glyph-name="hard-disk" d="M853.333 917.333h-682.667c-47.128 0-85.333-38.205-85.333-85.333v0-768c0-47.128 38.205-85.333 85.333-85.333v0h682.667c47.128 0 85.333 38.205 85.333 85.333v0 768c0 47.128-38.205 85.333-85.333 85.333v0zM170.667 64v768h682.667v-768zM512 704c-141.385 0-256-114.615-256-256s114.615-256 256-256c141.385 0 256 114.615 256 256v0c0 141.385-114.615 256-256 256v0zM512 277.333c-94.257 0-170.667 76.41-170.667 170.667s76.41 170.667 170.667 170.667c94.257 0 170.667-76.41 170.667-170.667v0c0-94.257-76.41-170.667-170.667-170.667v0zM298.667 789.333h-85.333v-85.333h85.333v85.333zM810.667 789.333h-85.333v-85.333h85.333v85.333zM298.667 192h-85.333v-85.333h85.333v85.333zM810.667 192h-85.333v-85.333h85.333v85.333zM512 490.667c-23.564 0-42.667-19.103-42.667-42.667s19.103-42.667 42.667-42.667c23.564 0 42.667 19.103 42.667 42.667v0c0 23.564-19.103 42.667-42.667 42.667v0z" />
<glyph unicode="&#xe930;" glyph-name="hardware" d="M384 917.333h-298.667c-23.564 0-42.667-19.103-42.667-42.667v0-853.333c0-23.564 19.103-42.667 42.667-42.667v0h298.667c23.564 0 42.667 19.103 42.667 42.667v0 853.333c0 23.564-19.103 42.667-42.667 42.667v0zM341.333 64h-213.333v426.667h213.333zM341.333 576h-213.333v85.333h213.333zM341.333 746.667h-213.333v85.333h213.333zM938.667 917.333h-426.667c-23.564 0-42.667-19.103-42.667-42.667v0-341.333c0-23.564 19.103-42.667 42.667-42.667v0h170.667v-42.667h-85.333c-23.564 0-42.667-19.103-42.667-42.667s19.103-42.667 42.667-42.667v0h256c23.564 0 42.667 19.103 42.667 42.667s-19.103 42.667-42.667 42.667v0h-85.333v42.667h170.667c23.564 0 42.667 19.103 42.667 42.667v0 341.333c0 23.564-19.103 42.667-42.667 42.667v0zM896 576h-341.333v256h341.333zM938.667 320h-426.667c-23.564 0-42.667-19.103-42.667-42.667v0-256c0-23.564 19.103-42.667 42.667-42.667v0h426.667c23.564 0 42.667 19.103 42.667 42.667v0 256c0 23.564-19.103 42.667-42.667 42.667v0zM896 64h-341.333v170.667h341.333zM170.667 234.667h128v-85.333h-128v85.333zM597.333 192h256v-85.333h-256v85.333z" />
<glyph unicode="&#xe931;" glyph-name="hidden" d="M512 554.667h11.52l66.56 64c-22.312 11.453-48.681 18.165-76.618 18.165-94.257 0-170.667-76.41-170.667-170.667 0-27.937 6.713-54.306 18.613-77.583l-0.448 0.964 65.707 68.267c-0.1 1.721-0.157 3.734-0.157 5.76s0.057 4.039 0.169 6.037l-0.012-0.277c0 47.128 38.205 85.333 85.333 85.333v0zM274.347 304.213c-55.254 40.384-102.249 87.921-140.801 141.902l-1.279 1.885c34.133 53.76 195.413 234.667 379.733 234.667 42.398-0.539 82.646-9.109 119.498-24.254l-2.165 0.788 64.427 64.853c-53.029 26.565-115.368 42.649-181.331 43.94l-0.429 0.007c-247.040 0-469.333-261.12-469.333-320 0-32.427 68.267-128 170.667-204.8zM829.013 637.867l139.52 139.52-54.613 54.613-734.293-734.293 54.613-54.613 119.040 119.040c46.719-20.802 101.153-33.278 158.404-34.13l0.316-0.004c247.040 0 469.333 261.12 469.333 320 0 30.72-60.16 115.2-152.32 189.867zM512 213.333c-33.168 0.265-64.973 5.708-94.772 15.559l2.186-0.626 72.107 72.107c3.062-0.202 6.637-0.317 10.24-0.317s7.179 0.115 10.724 0.342l-0.484-0.025c94.257 0 170.667 76.41 170.667 170.667v0c0.185 2.933 0.291 6.361 0.291 9.813s-0.106 6.88-0.314 10.28l0.023-0.467 85.333 85.333c47.223-36.859 87.894-79.022 122.065-126.2l1.242-1.8c-33.707-53.76-194.987-234.667-379.307-234.667z" />
<glyph unicode="&#xe932;" glyph-name="home" d="M966.827 480l-113.493 105.813v288.853h-85.333v-213.333l-227.84 202.667c-7.473 6.59-17.347 10.613-28.16 10.613s-20.687-4.023-28.207-10.653l0.047 0.040-426.667-384c-9.733-7.885-15.903-19.836-15.903-33.229 0-23.564 19.103-42.667 42.667-42.667 11.48 0 21.901 4.534 29.57 11.909l-0.014-0.013 57.173 55.467v-450.133h682.667v450.133l14.507-12.8c20.755-19.955 43.976-37.606 69.089-52.387l1.738-0.946c12.731 0.017 24.153 5.606 31.96 14.46l0.040 0.047c6.588 7.472 10.609 17.345 10.609 28.156 0 12.724-5.57 24.147-14.404 31.964l-0.045 0.039zM469.333 106.667v170.667h85.333v-170.667zM768 405.333v-298.667h-128v256h-256v-256h-128v440.747l256 227.413 256-227.413zM512 832l-426.667-384z" />
<glyph unicode="&#xe933;" glyph-name="hotfix" d="M813.653 448l48.64 48.64c37.052 38.324 59.885 90.598 59.885 148.205 0 117.821-95.513 213.333-213.333 213.333-57.607 0-109.881-22.833-148.265-59.943l0.060 0.058-48.64-48.64-48.64 48.64c-38.324 37.052-90.598 59.885-148.205 59.885-117.821 0-213.333-95.513-213.333-213.333 0-57.607 22.833-109.881 59.943-148.265l-0.058 0.060 48.64-48.64-48.64-48.64c-37.052-38.324-59.885-90.598-59.885-148.205 0-117.821 95.513-213.333 213.333-213.333 57.607 0 109.881 22.833 148.265 59.943l-0.060-0.058 48.64 48.64 48.64-48.64c38.324-37.052 90.598-59.885 148.205-59.885 117.821 0 213.333 95.513 213.333 213.333 0 57.607-22.833 109.881-59.943 148.265l0.058-0.060zM620.8 737.707c23.158 23.13 55.135 37.434 90.453 37.434s67.296-14.304 90.455-37.435l-0.001 0.001c23.13-23.158 37.434-55.135 37.434-90.453s-14.304-67.296-37.435-90.455l0.001 0.001-48.213-48.64-181.333 181.333zM692.907 448l-180.907-180.907-180.907 180.907 180.907 180.907zM223.573 556.8c-23.13 23.158-37.434 55.135-37.434 90.453s14.304 67.296 37.435 90.455l-0.001-0.001c23.158 23.13 55.135 37.434 90.453 37.434s67.296-14.304 90.455-37.435l-0.001 0.001 48.64-48.213-182.613-181.333zM404.48 158.293c-23.432-25.096-56.712-40.74-93.646-40.74-70.692 0-128 57.308-128 128 0 36.934 15.643 70.215 40.665 93.577l0.074 0.069 48.213 48.64 181.333-181.333zM802.987 158.293c-23.158-23.13-55.135-37.434-90.453-37.434s-67.296 14.304-90.455 37.435l0.001-0.001-48.64 48.213 181.333 181.333 48.213-48.64c22.75-23.092 36.799-54.812 36.799-89.813 0-35.638-14.564-67.874-38.065-91.081l-0.013-0.013zM426.945 448l85.381 85.381 85.381-85.381-85.381-85.381-85.381 85.381zM341.333 661.333c0-23.564-19.103-42.667-42.667-42.667s-42.667 19.103-42.667 42.667c0 23.564 19.103 42.667 42.667 42.667s42.667-19.103 42.667-42.667zM768 234.667c0-23.564-19.103-42.667-42.667-42.667s-42.667 19.103-42.667 42.667c0 23.564 19.103 42.667 42.667 42.667s42.667-19.103 42.667-42.667z" />
<glyph unicode="&#xe934;" glyph-name="hw-sensor" d="M896 917.333h-768c-47.128 0-85.333-38.205-85.333-85.333v0-597.333c0-47.128 38.205-85.333 85.333-85.333v0h341.333v-85.333h-128c-23.564 0-42.667-19.103-42.667-42.667s19.103-42.667 42.667-42.667v0h341.333c23.564 0 42.667 19.103 42.667 42.667s-19.103 42.667-42.667 42.667v0h-128v85.333h341.333c47.128 0 85.333 38.205 85.333 85.333v0 597.333c0 47.128-38.205 85.333-85.333 85.333v0zM896 234.667h-768v597.333h768zM426.24 570.453l111.36-241.067 99.84 169.387h170.24v85.333h-218.88l-41.813-71.253-110.933 239.36-99.84-166.4h-125.44v-85.333h173.653l41.813 69.973z" />
<glyph unicode="&#xe935;" glyph-name="import" d="M426.667 533.333h-85.333v-256h256v85.333h-110.507l354.133 353.707-60.587 60.587-353.707-354.133v110.507zM810.667 533.333v-384h-597.333v597.333h384v85.333h-384c-47.128 0-85.333-38.205-85.333-85.333v0-597.333c0-47.128 38.205-85.333 85.333-85.333v0h597.333c47.128 0 85.333 38.205 85.333 85.333v0 384z" />
<glyph unicode="&#xe936;" glyph-name="language" d="M512 874.667c-235.641 0-426.667-191.025-426.667-426.667s191.025-426.667 426.667-426.667c235.641 0 426.667 191.025 426.667 426.667v0c0 235.641-191.025 426.667-426.667 426.667v0zM807.253 618.667h-99.84c-10.818 51.538-27.315 97.18-49.216 139.578l1.43-3.044c62.282-30.634 112.622-77.411 146.75-134.936l0.877-1.597zM853.333 448c-0.207-30.408-4.241-59.781-11.644-87.785l0.551 2.452h-121.173c2.72 24.751 4.272 53.453 4.272 82.517 0 0.99-0.002 1.98-0.005 2.969v-0.153c0.003 0.836 0.005 1.826 0.005 2.816 0 29.064-1.552 57.766-4.576 86.027l0.305-3.51h121.173c6.852-25.552 10.887-54.926 11.093-85.208l0.001-0.125zM512 106.667c-31.147 0-80.64 62.293-107.947 170.667h215.893c-27.307-108.373-76.8-170.667-107.947-170.667zM388.693 362.667c-2.988 25.605-4.693 55.27-4.693 85.333s1.705 59.728 5.023 88.904l-0.33-3.571h246.613c2.988-25.439 4.694-54.909 4.694-84.778 0-0.195 0-0.39 0-0.585v0.030c0-0.165 0-0.36 0-0.556 0-29.868-1.705-59.338-5.023-88.317l0.329 3.54zM170.667 448c0.207 30.408 4.241 59.781 11.644 87.785l-0.551-2.452h121.173c-2.72-24.751-4.272-53.453-4.272-82.517 0-0.99 0.002-1.98 0.005-2.969v0.153c-0.003-0.836-0.005-1.826-0.005-2.816 0-29.064 1.552-57.766 4.576-86.027l-0.305 3.51h-121.173c-6.852 25.552-10.887 54.926-11.093 85.208l-0.001 0.125zM512 789.333c31.147 0 80.64-62.293 107.947-170.667h-215.893c27.307 108.373 76.8 170.667 107.947 170.667zM364.373 755.2c-20.471-39.352-36.969-84.994-47.153-132.969l-0.633-3.564h-99.84c35.004 59.123 85.345 105.899 145.602 135.63l2.025 0.903zM216.747 277.333h99.84c10.818-51.538 27.315-97.18 49.216-139.578l-1.43 3.044c-62.282 30.634-112.622 77.411-146.75 134.936l-0.877 1.597zM659.627 140.8c20.471 39.352 36.969 84.994 47.153 132.969l0.633 3.564h99.84c-35.004-59.123-85.345-105.899-145.602-135.63l-2.025-0.903z" />
<glyph unicode="&#xe937;" glyph-name="led-loccator" d="M512 917.333c-188.513 0-341.333-152.82-341.333-341.333v0c0-188.587 341.333-597.333 341.333-597.333s341.333 408.747 341.333 597.333c0 188.513-152.82 341.333-341.333 341.333v0zM512 115.627c-122.027 159.147-256 368.64-256 460.373 0 141.385 114.615 256 256 256s256-114.615 256-256v0c0-91.733-133.973-301.227-256-460.373zM512 704c-70.692 0-128-57.308-128-128s57.308-128 128-128c70.692 0 128 57.308 128 128v0c0 70.692-57.308 128-128 128v0zM512 533.333c-23.564 0-42.667 19.103-42.667 42.667s19.103 42.667 42.667 42.667c23.564 0 42.667-19.103 42.667-42.667v0c0-23.564-19.103-42.667-42.667-42.667v0z" />
<glyph unicode="&#xe938;" glyph-name="led" d="M853.333 789.333h-682.667c-47.128 0-85.333-38.205-85.333-85.333v0-512c0-47.128 38.205-85.333 85.333-85.333v0h682.667c47.128 0 85.333 38.205 85.333 85.333v0 512c0 47.128-38.205 85.333-85.333 85.333v0zM786.347 704l-274.347-203.093-276.053 203.093zM170.667 192v453.973l316.16-232.533c6.93-5.067 15.621-8.107 25.021-8.107 0.053 0 0.107 0 0.16 0h-0.008c9.503 0.099 18.243 3.289 25.281 8.611l-0.107-0.078 316.16 233.387v-455.253z" />
<glyph unicode="&#xe939;" glyph-name="led_s_on" d="M819.2 960h-614.4c-113.108 0-204.8-91.692-204.8-204.8v0-614.4c0-113.108 91.692-204.8 204.8-204.8v0h614.4c113.108 0 204.8 91.692 204.8 204.8v0 614.4c0 113.108-91.692 204.8-204.8 204.8v0zM870.4 192c0-28.277-22.923-51.2-51.2-51.2v0h-614.4c-28.277 0-51.2 22.923-51.2 51.2v0 390.144l343.040-256c4.225-3.196 9.568-5.12 15.36-5.12s11.135 1.924 15.424 5.167l-0.064-0.047 343.040 256zM870.4 646.656l-358.4-269.312-358.4 269.312v6.144c0 28.277 22.923 51.2 51.2 51.2v0h614.4c28.277 0 51.2-22.923 51.2-51.2v0z" />
<glyph unicode="&#xe93a;" glyph-name="licence" d="M663.893 678.827c-7.775-7.73-12.587-18.433-12.587-30.26 0-23.564 19.103-42.667 42.667-42.667s42.667 19.103 42.667 42.667c0 11.827-4.812 22.53-12.585 30.257l-0.002 0.002c-7.712 7.668-18.343 12.407-30.080 12.407s-22.368-4.74-30.082-12.409l0.002 0.002zM875.093 829.867c-54.044 54.023-128.694 87.436-211.148 87.436-164.949 0-298.667-133.718-298.667-298.667 0-18.537 1.689-36.68 4.921-54.283l-0.279 1.833-284.587-284.587v-241.493h241.493l284.587 284.587c15.743-2.922 33.89-4.627 52.422-4.693h0.058c0.643-0.005 1.402-0.008 2.163-0.008 164.949 0 298.667 133.718 298.667 298.667 0 82.484-33.437 157.158-87.495 211.207l-0.001 0.001zM814.507 467.627c-38.576-38.482-91.814-62.28-150.611-62.293h-0.003c-13.312 0.063-26.291 1.302-38.893 3.619l1.347-0.206-42.667 7.68-31.573-31.147-25.6-25.6-61.44 60.16-60.16-60.16 60.16-60.587-60.16-60.16-60.587 60.16-60.16-60.16 60.16-60.16-52.907-53.333h-120.747v120.747l259.413 259.84 31.573 31.147-7.68 42.667c-2.131 11.322-3.35 24.346-3.35 37.655 0 117.821 95.513 213.333 213.333 213.333s213.333-95.513 213.333-213.333c0-59.059-23.999-112.513-62.777-151.142l-0.007-0.007z" />
<glyph unicode="&#xe93b;" glyph-name="logout" d="M640 874.667h-469.333c-47.128 0-85.333-38.205-85.333-85.333v0-682.667c0-47.128 38.205-85.333 85.333-85.333v0h469.333c47.128 0 85.333 38.205 85.333 85.333v0 128h-85.333v-128h-469.333v682.667h469.333v-128h85.333v128c0 47.128-38.205 85.333-85.333 85.333v0zM832.427 640.427l-60.16-60.16 89.6-89.6h-477.867v-85.333h473.6l-87.467-87.467 60.16-60.16 132.267 131.84 60.587 60.587-60.587 60.16-130.133 130.133z" />
<glyph unicode="&#xe93c;" glyph-name="maintenace" d="M853.333 746.667h-85.333v64c-0.241 58.813-47.854 106.425-106.644 106.667h-298.69c-58.813-0.241-106.425-47.854-106.667-106.644v-64.023h-85.333c-47.128 0-85.333-38.205-85.333-85.333v0-554.667c0-47.128 38.205-85.333 85.333-85.333v0h682.667c47.128 0 85.333 38.205 85.333 85.333v0 554.667c0 47.128-38.205 85.333-85.333 85.333v0zM341.333 810.667c0.234 11.687 9.647 21.099 21.311 21.333h298.689c11.687-0.234 21.099-9.647 21.333-21.311v-64.022h-341.333zM853.333 106.667h-682.667v554.667h682.667zM512 362.667h-192c-58.91 0-106.667-47.756-106.667-106.667v0 0c0-58.91 47.756-106.667 106.667-106.667v0h192v85.333h298.667v85.333h-298.667zM426.667 234.667h-128v42.667h128zM562.347 533.333h-349.013v-85.333h349.013c18.382-49.611 65.296-84.33 120.32-84.33s101.938 34.719 120.032 83.444l0.288 0.886h-120.32c-23.564 0-42.667 19.103-42.667 42.667s19.103 42.667 42.667 42.667v0h120.32c-18.382 49.611-65.296 84.33-120.32 84.33s-101.938-34.719-120.032-83.444l-0.288-0.886z" />
<glyph unicode="&#xe93d;" glyph-name="market" d="M469.333 405.333c23.564 0 42.667 19.103 42.667 42.667v0 128c0 23.564-19.103 42.667-42.667 42.667s-42.667-19.103-42.667-42.667v0-128c0-23.564 19.103-42.667 42.667-42.667v0zM597.333 405.333c23.564 0 42.667 19.103 42.667 42.667v0 128c0 23.564-19.103 42.667-42.667 42.667s-42.667-19.103-42.667-42.667v0-128c0-23.564 19.103-42.667 42.667-42.667v0zM725.333 405.333c23.564 0 42.667 19.103 42.667 42.667v0 128c0 23.564-19.103 42.667-42.667 42.667s-42.667-19.103-42.667-42.667v0-128c0-23.564 19.103-42.667 42.667-42.667v0zM426.667 192c-70.692 0-128-57.308-128-128s57.308-128 128-128c70.692 0 128 57.308 128 128v0c0 70.692-57.308 128-128 128v0zM426.667 21.333c-23.564 0-42.667 19.103-42.667 42.667s19.103 42.667 42.667 42.667c23.564 0 42.667-19.103 42.667-42.667v0c0-23.564-19.103-42.667-42.667-42.667v0zM768 192c-70.692 0-128-57.308-128-128s57.308-128 128-128c70.692 0 128 57.308 128 128v0c0 70.692-57.308 128-128 128v0zM768 21.333c-23.564 0-42.667 19.103-42.667 42.667s19.103 42.667 42.667 42.667c23.564 0 42.667-19.103 42.667-42.667v0c0-23.564-19.103-42.667-42.667-42.667v0zM1015.467 740.267c-7.867 10.41-20.223 17.067-34.133 17.067v0h-737.707l-27.307 85.333c-5.6 17.479-21.706 29.911-40.715 29.911-0.686 0-1.369-0.016-2.047-0.048l0.096 0.004h-130.987c-19.145-4.474-33.186-21.397-33.186-41.6s14.041-37.126 32.897-41.543l0.289-0.057h101.973l139.947-523.947c5.33-17.914 21.651-30.754 40.97-30.754 0.597 0 1.191 0.012 1.781 0.037l-0.085-0.003h536.747c0.544-0.025 1.181-0.039 1.822-0.039 19.165 0 35.378 12.635 40.764 30.030l0.081 0.302 117.333 439.040c0.658 2.807 1.035 6.030 1.035 9.342 0 10.245-3.611 19.646-9.629 27.001l0.060-0.076zM832 320h-474.453l-89.173 352h655.787z" />
<glyph unicode="&#xe93e;" glyph-name="menu" d="M896 746.667h-597.333v-85.333h597.333v85.333zM896 490.667h-597.333v-85.333h597.333v85.333zM896 234.667h-597.333v-85.333h597.333v85.333zM213.333 746.667h-85.333v-85.333h85.333v85.333zM213.333 490.667h-85.333v-85.333h85.333v85.333zM213.333 234.667h-85.333v-85.333h85.333v85.333z" />
<glyph unicode="&#xe93f;" glyph-name="metadata-editor" d="M311.040 648.96c-7.647-7.709-12.373-18.325-12.373-30.046 0-23.564 19.103-42.667 42.667-42.667s42.667 19.103 42.667 42.667c0 11.721-4.726 22.337-12.376 30.049l0.003-0.003c-7.733 7.795-18.45 12.621-30.293 12.621s-22.56-4.826-30.291-12.618l-0.003-0.003zM881.067 480.853l-320 320c-19.454 19.103-46.084 30.954-75.483 31.146h-250.917c-58.91 0-106.667-47.756-106.667-106.667v0-253.867c0-0.109-0.001-0.238-0.001-0.367 0-29.352 11.904-55.925 31.147-75.153l318.721-318.294c19.291-19.232 45.91-31.124 75.307-31.124s56.016 11.892 75.309 31.127l-0.003-0.003 252.587 252.16c19.257 19.359 31.161 46.050 31.161 75.52s-11.904 56.161-31.166 75.525l0.005-0.005zM820.48 390.4l-252.16-252.587c-3.769-3.701-8.94-5.986-14.644-5.986-0.252 0-0.502 0.004-0.752 0.013l0.036-0.001c-0.14-0.003-0.306-0.005-0.472-0.005-5.646 0-10.758 2.284-14.462 5.979v0l-318.293 318.72c-3.943 3.672-6.401 8.893-6.401 14.689 0 0.086 0.001 0.172 0.002 0.257v-0.013 253.867c0 11.782 9.551 21.333 21.333 21.333v0h250.88c0.073 0.001 0.159 0.001 0.244 0.001 5.795 0 11.017-2.458 14.678-6.389l0.011-0.012 320-320c3.984-3.745 6.465-9.050 6.465-14.933s-2.481-11.188-6.454-14.923l-0.011-0.010z" />
<glyph unicode="&#xe940;" glyph-name="model" d="M896 874.667h-768c-47.128 0-85.333-38.205-85.333-85.333v0-554.667c0-47.128 38.205-85.333 85.333-85.333v0h341.333v-85.333h-128c-23.564 0-42.667-19.103-42.667-42.667s19.103-42.667 42.667-42.667v0h341.333c23.564 0 42.667 19.103 42.667 42.667s-19.103 42.667-42.667 42.667v0h-128v85.333h341.333c47.128 0 85.333 38.205 85.333 85.333v0 554.667c0 47.128-38.205 85.333-85.333 85.333v0zM896 234.667h-768v554.667h768zM298.667 405.333v298.667h-85.333v-384h85.333v85.333zM725.333 405.333h85.333v-85.333h-85.333v85.333zM682.667 405.333v298.667h-85.333v-384h85.333v85.333zM341.333 704h85.333v-256h-85.333v256zM725.333 704h85.333v-256h-85.333v256zM341.333 405.333h85.333v-85.333h-85.333v85.333zM554.667 405.333v298.667h-85.333v-384h85.333v85.333z" />
<glyph unicode="&#xe941;" glyph-name="network" d="M512 917.333c-259.206 0-469.333-210.128-469.333-469.333s210.128-469.333 469.333-469.333c259.206 0 469.333 210.128 469.333 469.333v0c0 259.206-210.128 469.333-469.333 469.333v0zM855.467 618.667h-52.48c-17.115 47.73-60.483 81.913-112.257 85.313l-0.383 0.020c-11.105 39.416-24.918 73.547-41.93 105.724l1.397-2.898c90.508-35.717 162.503-102.043 204.647-185.949l1.006-2.211zM682.667 533.333c-23.564 0-42.667 19.103-42.667 42.667s19.103 42.667 42.667 42.667c23.564 0 42.667-19.103 42.667-42.667v0c0-23.564-19.103-42.667-42.667-42.667v0zM512 832c23.040 0 66.56-52.48 96.427-151.893-20.816-15.385-36.754-36.273-45.782-60.525l-0.298-0.915h-162.56c26.88 139.52 84.907 213.333 112.213 213.333zM374.187 805.973c-28.156-54.247-49.314-117.22-60.1-183.673l-0.487-3.634h-142.933c42.815 85.435 113.993 151.362 200.939 186.388l2.581 0.918zM341.333 362.667c23.564 0 42.667-19.103 42.667-42.667s-19.103-42.667-42.667-42.667c-23.564 0-42.667 19.103-42.667 42.667v0c0 23.564 19.103 42.667 42.667 42.667v0zM128 448c0 0.074 0 0.161 0 0.249 0 30.18 3.577 59.525 10.33 87.633l-0.517-2.548h164.693c-3.84-27.733-3.84-56.32-3.84-85.333 0-2.56 0-5.12 0-7.68-36.33-13.196-64.457-41.323-77.37-76.764l-0.283-0.89h-83.2c-6.236 25.56-9.813 54.905-9.813 85.085 0 0.087 0 0.175 0 0.262v-0.014zM170.667 277.333h50.347c17.115-47.73 60.483-81.913 112.257-85.313l0.383-0.020c11.105-39.416 24.918-73.547 41.93-105.724l-1.397 2.898c-89.65 36.147-160.86 102.381-202.515 185.934l-1.005 2.226zM512 64c-23.040 0-66.56 52.48-96.427 151.893 20.816 15.385 36.754 36.273 45.782 60.525l0.298 0.915h162.56c-26.88-139.52-84.907-213.333-112.213-213.333zM636.16 362.667h-174.507c-13.3 36.156-41.403 64.119-76.762 76.944l-0.891 0.282c0 2.987 0 5.547 0 8.107 0 30.293 0 58.453 3.84 85.333h174.507c13.3-36.156 41.403-64.119 76.762-76.944l0.891-0.282c0-2.987 0-5.547 0-8.107 0-30.293 0-58.453-3.84-85.333zM649.813 90.027c28.156 54.247 49.314 117.22 60.1 183.673l0.487 3.634h145.067c-43.305-85.773-115.268-151.791-203.050-186.402l-2.604-0.905zM721.493 362.667c2.56 27.733 3.84 56.32 3.84 85.333 0 2.56 0 5.12 0 7.68 36.33 13.196 64.457 41.323 77.37 76.764l0.283 0.89h83.2c6.237-25.635 9.814-55.067 9.814-85.333s-3.577-59.698-10.332-87.894l0.518 2.561z" />
<glyph unicode="&#xe942;" glyph-name="network_s_on" d="M819.2 960h-614.4c-113.108 0-204.8-91.692-204.8-204.8v0-614.4c0-113.108 91.692-204.8 204.8-204.8v0h614.4c113.108 0 204.8 91.692 204.8 204.8v0 614.4c0 113.108-91.692 204.8-204.8 204.8v0zM891.392 601.6h-186.368c-12.008 91.404-44.175 173.477-91.901 244.183l1.277-2.007c126.693-33.473 227.511-122.853 275.993-239.464l0.999-2.712zM665.6 448c0-0.198 0-0.432 0-0.667 0-35.842-2.046-71.205-6.028-105.981l0.395 4.248h-295.936c-3.585 30.726-5.631 66.324-5.631 102.4s2.046 71.674 6.027 106.685l-0.396-4.285h295.936c3.586-30.527 5.632-65.891 5.632-101.733 0-0.234 0-0.468 0-0.702v0.035zM512 857.6c48.64 0 114.176-96.256 140.8-256h-281.6c26.624 159.744 92.16 256 140.8 256zM409.6 843.776c-46.449-68.699-78.616-150.772-90.314-239.301l-0.31-2.875h-186.368c49.481 119.323 150.299 208.703 274.134 241.532l2.858 0.644zM102.4 448c0.248 36.489 5.089 71.737 13.973 105.342l-0.661-2.942h196.608c-5.12-32.768-5.12-67.072-5.12-102.4s0-69.632 5.12-102.4h-196.608c-8.223 30.663-13.064 65.911-13.311 102.25l-0.001 0.15zM132.608 294.4h186.368c12.008-91.404 44.175-173.477 91.901-244.183l-1.277 2.007c-126.693 33.473-227.511 122.853-275.993 239.464l-0.999 2.712zM512 38.4c-48.64 0-114.176 96.256-140.8 256h281.6c-26.624-159.744-89.6-256-140.8-256zM614.4 52.224c46.449 68.699 78.616 150.772 90.314 239.301l0.31 2.875h186.368c-49.481-119.323-150.299-208.703-274.134-241.532l-2.858-0.644zM908.288 345.6h-196.608c3.072 32.768 5.12 67.072 5.12 102.4s0 69.632-5.12 102.4h196.608c8.223-30.663 13.064-65.911 13.311-102.25l0.001-0.15c-0.248-36.489-5.089-71.737-13.973-105.342l0.661 2.942z" />
<glyph unicode="&#xe943;" glyph-name="noresult" d="M494.24 458.4h-41.28c0 6.56 0 10.56 0 12-0.037 0.934-0.057 2.030-0.057 3.131 0 12.046 2.493 23.509 6.991 33.903l-0.213-0.553c6.853 12.59 15.688 23.212 26.214 31.852l0.186 0.148c8.659 7.316 16.452 15.008 23.619 23.26l0.221 0.26c3.706 5.291 5.923 11.862 5.923 18.951 0 0.144-0.001 0.288-0.003 0.431v-0.022c0.001 0.115 0.002 0.251 0.002 0.387 0 9.718-4.048 18.49-10.55 24.722l-0.012 0.012c-6.882 6.476-16.177 10.456-26.402 10.456-0.731 0-1.458-0.020-2.179-0.061l0.1 0.004c-0.431 0.017-0.937 0.026-1.446 0.026-10.657 0-20.345-4.151-27.534-10.925l0.020 0.019c-8.464-8.801-14.238-20.244-15.966-32.974l-0.034-0.306-41.76 5.76c0.946 21.456 10.205 40.58 24.611 54.372l0.029 0.028c14.784 14.1 34.848 22.777 56.94 22.777 1.076 0 2.148-0.021 3.214-0.061l-0.154 0.005c1.282 0.069 2.783 0.109 4.293 0.109 22.421 0 42.813-8.685 57.996-22.874l-0.049 0.045c14.187-13.11 23.040-31.812 23.040-52.581 0-0.021 0-0.041 0-0.062v0.003c0.001-0.137 0.002-0.299 0.002-0.461 0-11.616-3.15-22.497-8.642-31.834l0.16 0.295c-10.436-15.455-22.43-28.771-36.031-40.242l-0.289-0.238c-7.158-5.97-13.134-13.068-17.721-21.063l-0.199-0.377c-2.075-6.685-3.27-14.371-3.27-22.336 0-2.106 0.084-4.192 0.247-6.256l-0.017 0.272zM452.96 390.72v50.24h45.44v-50.24z" />
<glyph unicode="&#xe944;" glyph-name="notification" d="M900.693 237.227l-47.36 76.373v219.733c-0.145 135.959-91.112 250.632-215.49 286.624l-2.11 0.523c-14.99 55.255-64.693 95.227-123.733 95.227s-108.744-39.972-123.526-94.33l-0.208-0.897c-126.488-36.515-217.455-151.188-217.6-287.13v-219.75l-47.36-76.373c-8.139-12.836-12.971-28.467-12.971-45.227 0-47.128 38.205-85.333 85.333-85.333 0.060 0 0.12 0 0.18 0h130.978c26.132-75.139 96.346-128.103 178.93-128.103 2.196 0 4.382 0.037 6.56 0.112l-0.317-0.009c1.861-0.066 4.048-0.103 6.243-0.103 82.584 0 152.798 52.964 178.528 126.777l0.402 1.326h130.987c0.051 0 0.111 0 0.171 0 47.128 0 85.333 38.205 85.333 85.333 0 16.76-4.832 32.391-13.178 45.577l0.207-0.35zM512 64c-0.9-0.026-1.958-0.040-3.020-0.040-35.806 0-67.74 16.582-88.541 42.485l-0.172 0.222h183.467c-20.973-26.125-52.907-42.707-88.713-42.707-1.062 0-2.121 0.015-3.176 0.044l0.155-0.003zM195.84 192l47.36 76.373c8.034 12.774 12.8 28.307 12.8 44.953 0 0.096 0 0.193 0 0.289v-0.015 219.733c0.086 97.24 65.218 179.244 154.228 204.856l1.506 0.371c28.514 9.022 50.206 31.843 57.473 60.423l0.127 0.59c5.341 17.896 21.653 30.72 40.96 30.72s35.619-12.824 40.882-30.418l0.078-0.302c7.7-29.541 30.088-52.495 58.703-60.862l0.603-0.151c91.234-25.362 157.131-107.557 157.44-205.191v-219.768c0-0.081 0-0.178 0-0.274 0-16.646 4.766-32.179 13.009-45.309l-0.208 0.356 47.36-76.373z" />
<glyph unicode="&#xe945;" glyph-name="partition_s_on" d="M819.2 960h-614.4c-113.108 0-204.8-91.692-204.8-204.8v0-614.4c0-113.108 91.692-204.8 204.8-204.8v0h614.4c113.108 0 204.8 91.692 204.8 204.8v0 614.4c0 113.108-91.692 204.8-204.8 204.8v0zM512 494.592v0c21.721-8.044 38.548-24.871 46.417-46.054l0.175-0.538c2.723-7.599 4.393-16.37 4.606-25.502l0.002-0.098c0-42.415-34.385-76.8-76.8-76.8s-76.8 34.385-76.8 76.8c0 42.415 34.385 76.8 76.8 76.8v0c9.23-0.215 18.001-1.885 26.187-4.79l-0.587 0.182zM486.4 89.6c-3.818-0.157-8.298-0.246-12.8-0.246-183.936 0-333.046 149.11-333.046 333.046 0 179.435 141.901 325.727 319.606 332.78l0.64 0.020v-204.8c-57.202-13.596-99.093-64.253-99.093-124.693 0-70.692 57.308-128 128-128 60.44 0 111.097 41.891 124.518 98.223l0.175 0.871h204.8c-13.185-172.353-156.277-307.206-330.865-307.206-0.68 0-1.36 0.002-2.039 0.006h0.104zM819.2 448h-204.8c-10.89 50.987-51.003 90.241-101.607 99.717l-0.793 0.123v309.76c226.216 0 409.6-183.384 409.6-409.6v0z" />
<glyph unicode="&#xe946;" glyph-name="power-supply" d="M678.4 746.667h-332.8l-132.267-132.267v-332.8l132.267-132.267h332.8l132.267 132.267v332.8zM426.667 448h-42.667v128h42.667zM554.667 277.333h-85.333v85.333h85.333zM640 448h-42.667v128h42.667z" />
<glyph unicode="&#xe947;" glyph-name="power-supply_s_on" d="M460.8 345.6h102.4v-102.4h-102.4v102.4zM819.2 960h-614.4c-113.108 0-204.8-91.692-204.8-204.8v0-614.4c0-113.108 91.692-204.8 204.8-204.8v0h614.4c113.108 0 204.8 91.692 204.8 204.8v0 614.4c0 113.108-91.692 204.8-204.8 204.8v0zM870.4 248.32l-158.72-158.72h-399.36l-158.72 158.72v399.36l158.72 158.72h399.36l158.72-158.72zM614.4 652.8h51.2v-204.8h-51.2v204.8zM358.4 652.8h51.2v-204.8h-51.2v204.8z" />
<glyph unicode="&#xe948;" glyph-name="power" d="M597.333 779.52v-87.893c124.397-37.944 213.333-151.694 213.333-286.217 0-164.949-133.718-298.667-298.667-298.667s-298.667 133.718-298.667 298.667c0 134.522 88.936 248.272 211.217 285.66l2.116 0.557v87.893c-172.299-40.269-298.667-192.577-298.667-374.398 0-212.077 171.923-384 384-384s384 171.923 384 384c0 181.822-126.368 334.129-296.068 373.885l-2.599 0.513zM469.333 874.667h85.333v-426.667h-85.333v426.667z" />
<glyph unicode="&#xe949;" glyph-name="process" d="M810.667 789.333h85.333v-85.333h-85.333v85.333zM682.667 789.333h85.333v-85.333h-85.333v85.333zM554.667 789.333h85.333v-85.333h-85.333v85.333zM938.667 917.333h-853.333c-47.128 0-85.333-38.205-85.333-85.333v0-768c0-47.128 38.205-85.333 85.333-85.333v0h298.667v85.333h-298.667v512h853.333v-298.667h85.333v554.667c0 47.128-38.205 85.333-85.333 85.333v0zM938.667 661.333h-853.333v170.667h853.333zM170.667 490.667h85.333v-85.333h-85.333v85.333zM341.333 490.667h213.333v-85.333h-213.333v85.333zM170.667 320h85.333v-85.333h-85.333v85.333zM341.333 320h85.333v-85.333h-85.333v85.333zM917.333 149.333c-1.975 0.109-4.287 0.171-6.613 0.171s-4.638-0.062-6.934-0.185l0.32 0.014-76.373 122.88c15.912 18.522 25.6 42.792 25.6 69.325 0 58.91-47.756 106.667-106.667 106.667s-106.667-47.756-106.667-106.667c0-26.533 9.688-50.804 25.719-69.467l-0.119 0.142-76.373-122.88c-1.975 0.109-4.287 0.171-6.613 0.171s-4.638-0.062-6.934-0.185l0.32 0.014c-57.974-1.211-104.507-48.494-104.507-106.645 0-58.91 47.756-106.667 106.667-106.667 51.351 0 94.227 36.286 104.385 84.617l0.122 0.695h132.267c10.272-49.036 53.153-85.333 104.512-85.333 58.91 0 106.667 47.756 106.667 106.667 0 58.903-47.744 106.654-106.644 106.667h-0.001zM664.32 106.667l82.347 134.827 82.347-134.827z" />
<glyph unicode="&#xe94a;" glyph-name="refetch" d="M213.333 448c-0.31 4.466-0.487 9.679-0.487 14.933s0.177 10.467 0.525 15.633l-0.038-0.7-85.333 8.533c0-12.8 0-25.6 0-38.4 0-0.2-0.001-0.437-0.001-0.674 0-26.351 2.797-52.049 8.111-76.812l-0.43 2.393 85.333 16.64c-4.278 17.328-7.043 37.402-7.669 58.014l-0.011 0.439zM512 832c-79.64-0.318-153.491-24.83-214.659-66.56l1.326 0.854v108.373h-85.333v-256h256v85.333h-110.507c43.487 26.146 95.971 41.612 152.068 41.612 164.949 0 298.667-133.718 298.667-298.667s-133.718-298.667-298.667-298.667c-81.931 0-156.158 32.991-210.119 86.412l0.025-0.024-60.16-58.027c69.507-69.591 165.575-112.64 271.698-112.64 212.077 0 384 171.923 384 384s-171.923 384-384 384c-0.119 0-0.238 0-0.356 0h0.018zM235.093 337.067l-79.36-31.573c10.651-27.098 23.125-50.429 37.912-72.054l-0.792 1.227 70.827 47.36c-10.676 15.83-20.279 33.956-27.9 53.087l-0.686 1.953z" />
<glyph unicode="&#xe94b;" glyph-name="refresh" d="M128 448c0.114-147.936 83.866-276.284 206.52-340.325l2.12-1.008h-123.307v-85.333h256v256h-85.333v-98.56c-100.875 49.376-169.113 151.272-169.113 269.105 0 149.344 109.614 273.086 252.777 295.163l1.669 0.212v85.333c-192.567-22.155-340.786-183.978-341.333-380.531v-0.056zM687.36 789.333h123.307v85.333h-256v-256h85.333v98.56c100.875-49.376 169.113-151.272 169.113-269.105 0-149.344-109.614-273.086-252.777-295.163l-1.669-0.212v-85.333c191.939 23.178 339.239 185.079 339.239 381.382 0 147.219-82.846 275.088-204.461 339.53l-2.084 1.007z" />
<glyph unicode="&#xe94c;" glyph-name="remote" d="M311.040 460.373l98.133-97.707-98.133-97.707 60.587-60.587 157.867 158.293-157.867 158.293-60.587-60.587zM712.96 631.040l-60.587 60.587-157.867-158.293 157.867-158.293 60.587 60.587-98.133 97.707 98.133 97.707zM512 874.667c-235.641 0-426.667-191.025-426.667-426.667s191.025-426.667 426.667-426.667c235.641 0 426.667 191.025 426.667 426.667v0c0 235.641-191.025 426.667-426.667 426.667v0zM512 106.667c-188.513 0-341.333 152.82-341.333 341.333s152.82 341.333 341.333 341.333c188.513 0 341.333-152.82 341.333-341.333v0c0-188.513-152.82-341.333-341.333-341.333v0z" />
<glyph unicode="&#xe94d;" glyph-name="remove_agents" d="M810.667 405.333v85.333h-128v-85.333h-213.333v-85.333h42.667v-384h469.333v384h42.667v85.333zM896 21.333h-298.667v298.667h298.667zM768 234.667h85.333v-170.667h-85.333v170.667zM640 234.667h85.333v-170.667h-85.333v170.667zM640 576c0 0.080 0 0.175 0 0.27 0 94.257-76.41 170.667-170.667 170.667s-170.667-76.41-170.667-170.667c0-47.938 19.765-91.26 51.59-122.261l0.037-0.036c-57.1-38.786-94.154-103.371-94.293-176.619v-0.021h-85.333v512h682.667v-256h85.333v256c0 47.128-38.205 85.333-85.333 85.333v0h-682.667c-47.128 0-85.333-38.205-85.333-85.333v0-512c0-47.128 38.205-85.333 85.333-85.333v0h256v85.333h-85.333c0 70.692 57.308 128 128 128v0c94.257 0 170.667 76.41 170.667 170.667v0zM469.333 490.667c-47.128 0-85.333 38.205-85.333 85.333s38.205 85.333 85.333 85.333c47.128 0 85.333-38.205 85.333-85.333v0c0-47.128-38.205-85.333-85.333-85.333v0zM85.333 106.667c0-23.564 19.103-42.667 42.667-42.667v0h298.667v85.333h-298.667c-23.564 0-42.667-19.103-42.667-42.667v0z" />
<glyph unicode="&#xe94e;" glyph-name="remove_redfish" d="M510.72 568.32c0-23.564-19.103-42.667-42.667-42.667s-42.667 19.103-42.667 42.667c0 23.564 19.103 42.667 42.667 42.667s42.667-19.103 42.667-42.667zM701.013 524.373l115.2-76.8v241.493l-115.2-76.8-231.68 155.733-298.667-199.68 298.667-199.68zM469.333 665.6l145.067-97.28-145.067-96.853-146.347 96.853zM810.667 354.987v85.333h-128v-85.333h-213.333v-85.333h42.667v-341.333h469.333v341.333h42.667v85.333zM896 13.653h-298.667v256h298.667zM638.72 226.987h85.333v-170.667h-85.333v170.667zM766.72 226.987h85.333v-170.667h-85.333v170.667zM170.667 184.32h256v85.333h-256v554.667h682.667v-341.333h85.333v341.333c0 47.128-38.205 85.333-85.333 85.333v0h-682.667c-47.128 0-85.333-38.205-85.333-85.333v0-554.667c0-47.128 38.205-85.333 85.333-85.333v0zM85.333 106.667c0-23.564 19.103-42.667 42.667-42.667v0h298.667v85.333h-298.667c-23.564 0-42.667-19.103-42.667-42.667v0z" />
<glyph unicode="&#xe950;" glyph-name="remove_vsphere" d="M668.444 263.111h56.889v-142.222h-56.889v142.222zM753.778 263.111h56.889v-142.222h-56.889v142.222zM910.222 362.667h-148.48v23.324c0 15.709-12.735 28.444-28.444 28.444s-28.444-12.735-28.444-28.444v0-23.324h-135.964c-15.709 0-28.444-12.735-28.444-28.444s12.735-28.444 28.444-28.444v0h14.222v-256c0-15.709 12.735-28.444 28.444-28.444v0h256c15.709 0 28.444 12.735 28.444 28.444v0 256h14.222c15.709 0 28.444 12.735 28.444 28.444s-12.735 28.444-28.444 28.444v0zM839.111 78.222h-199.111v227.556h199.111zM631.182 533.333c11.863-19.414 20.045-42.349 22.963-66.898l0.077-0.799 54.898 15.644c-4.186 29.273-13.492 55.656-27.026 79.308l0.572-1.086 113.778 61.724v-201.671h56.889v249.173c0.19 1.026 0.299 2.207 0.299 3.413s-0.109 2.387-0.317 3.533l0.018-0.12s0 1.422 0 2.276c-0.621 1.78-1.294 3.282-2.074 4.717l0.083-0.166s0 1.422-1.707 2.276c-0.921 1.388-1.857 2.594-2.872 3.729l0.027-0.031-2.276 1.707-3.129 2.276-336.498 179.2c-7.011 3.752-15.337 5.956-24.178 5.956s-17.167-2.204-24.458-6.092l0.28 0.137-333.084-177.778s0 0 0 0v0c-1.099-0.622-2.038-1.379-2.836-2.265l-0.009-0.010-2.56-1.991-4.267-4.267-1.707-2.276c-0.765-1.379-1.442-2.982-1.946-4.66l-0.045-0.175v-1.991c-0.134-1.11-0.21-2.395-0.21-3.698s0.076-2.588 0.224-3.851l-0.015 0.153v-421.831c0.168-19.919 11.559-37.139 28.153-45.66l0.291-0.136 328.818-176.924 3.982-1.422s1.422 0 2.276 0c1.069-0.195 2.299-0.307 3.556-0.307s2.487 0.112 3.681 0.325l-0.126-0.019c1.112-0.197 2.392-0.31 3.698-0.31s2.586 0.113 3.83 0.329l-0.133-0.019h1.991l3.982 1.422 15.076 7.964v435.2zM334.507 531.627l117.76-63.716v-187.449c-79.706 15.414-139.077 84.632-139.077 167.718 0 30.312 7.903 58.779 21.76 83.452l-0.443-0.859zM483.271 519.396l-111.218 58.596c29.637 25.466 68.474 40.971 110.933 40.971s81.297-15.505 111.16-41.161l-0.227 0.19zM480.711 819.769l284.444-151.040-117.476-62.862c-41.463 43.048-99.6 69.786-163.982 69.786s-122.52-26.738-163.914-69.714l-0.068-0.071-122.311 62.862zM165.262 620.658l119.182-62.862c-17.745-31.652-28.197-69.464-28.197-109.716 0-114.552 84.643-209.334 194.797-225.215l1.222-0.145v-126.009l-287.004 152.178z" />
<glyph unicode="&#xe951;" glyph-name="report" d="M938.667 106.667h-853.333v-85.333h853.333v85.333zM256 320v-85.333h-85.333v85.333h85.333zM298.667 405.333h-170.667c-23.564 0-42.667-19.103-42.667-42.667v0-170.667c0-23.564 19.103-42.667 42.667-42.667v0h170.667c23.564 0 42.667 19.103 42.667 42.667v0 170.667c0 23.564-19.103 42.667-42.667 42.667v0zM554.667 533.333v-298.667h-85.333v298.667h85.333zM597.333 618.667h-170.667c-23.564 0-42.667-19.103-42.667-42.667v0-384c0-23.564 19.103-42.667 42.667-42.667v0h170.667c23.564 0 42.667 19.103 42.667 42.667v0 384c0 23.564-19.103 42.667-42.667 42.667v0zM853.333 832v-597.333h-85.333v597.333h85.333zM896 917.333h-170.667c-23.564 0-42.667-19.103-42.667-42.667v0-682.667c0-23.564 19.103-42.667 42.667-42.667v0h170.667c23.564 0 42.667 19.103 42.667 42.667v0 682.667c0 23.564-19.103 42.667-42.667 42.667v0z" />
<glyph unicode="&#xe952;" glyph-name="save" d="M913.92 686.080l-163.413 163.413c-15.46 15.55-36.866 25.173-60.519 25.173-0.024 0-0.048 0-0.071 0h-519.25c-47.128 0-85.333-38.205-85.333-85.333v0-682.667c0-47.128 38.205-85.333 85.333-85.333v0h682.667c47.128 0 85.333 38.205 85.333 85.333v0 518.827c0.001 0.147 0.001 0.32 0.001 0.493 0 23.442-9.452 44.676-24.754 60.099l0.005-0.006zM384 106.667v213.333h256v-213.333zM725.333 106.667v298.667h-426.667v-298.667h-128v682.667h519.253l163.413-163.84v-518.827z" />
<glyph unicode="&#xe953;" glyph-name="scan_deploy" d="M0 490.667h1024v-85.333h-1024v85.333zM853.333 362.667h-85.333v-170.667h-170.667v-85.333h170.667v-170.667h85.333v170.667h170.667v85.333h-170.667v170.667zM938.667 576h-85.333v213.333h-682.667v-213.333h-85.333v213.333c0 47.128 38.205 85.333 85.333 85.333v0h682.667c47.128 0 85.333-38.205 85.333-85.333v0zM512 106.667h-341.333v213.333h-85.333v-213.333c0-47.128 38.205-85.333 85.333-85.333v0h341.333z" />
<glyph unicode="&#xe954;" glyph-name="search" d="M903.68 95.147l-211.2 211.2c-2.069 1.888-4.465 3.464-7.085 4.627l-0.169 0.067c51.433 59.42 82.77 137.466 82.77 222.83 0 188.513-152.82 341.333-341.333 341.333s-341.333-152.82-341.333-341.333c0-188.513 152.82-341.333 341.333-341.333 74.625 0 143.656 23.948 199.828 64.577l-0.998-0.687c1.712-3.968 4.012-7.363 6.833-10.246l211.194-211.194c7.872-9.153 19.467-14.914 32.407-14.914 23.564 0 42.667 19.103 42.667 42.667 0 12.94-5.761 24.535-14.858 32.36l-0.056 0.047zM426.667 277.333c-141.385 0-256 114.615-256 256s114.615 256 256 256c141.385 0 256-114.615 256-256v0c0-141.385-114.615-256-256-256v0z" />
<glyph unicode="&#xe955;" glyph-name="security" d="M128 715.52v-306.347c0-271.36 384-426.667 384-426.667s384 155.307 384 426.667v303.787l-384 199.68zM810.667 409.173c0-157.013-192.853-282.453-298.667-333.227-105.813 51.2-298.667 176.213-298.667 333.227v252.16l298.667 153.173 298.667-153.173zM415.573 433.92c-7.691 7.549-18.241 12.209-29.879 12.209-23.564 0-42.667-19.103-42.667-42.667 0-10.15 3.544-19.472 9.462-26.796l-0.063 0.081 85.333-95.573c7.724-8.535 18.791-13.922 31.118-14.080h0.028c12.081 0.048 22.971 5.109 30.704 13.21l0.016 0.017 213.333 223.573c7.252 7.66 11.712 18.029 11.712 29.44 0 23.67-19.188 42.858-42.858 42.858-12.259 0-23.316-5.147-31.128-13.398l-0.019-0.020-180.053-190.293z" />
<glyph unicode="&#xe956;" glyph-name="sensor-threshold" d="M597.333 298.667v85.333h-132.267l-43.093-65.28-110.933 212.48-98.56-145.493h-84.053v-85.333h129.28l43.947 64.427 111.36-214.187 98.133 148.053h86.187zM469.333 116.907v0-180.907h180.907l362.24 362.24-180.907 180.907zM614.827 21.333h-60.16v60.16l186.027 186.453 60.587-60.587zM861.44 267.947l-60.16 60.16 30.293 30.293 60.16-60.16zM554.667 789.333h85.333v-85.333h-85.333v85.333zM682.667 789.333h85.333v-85.333h-85.333v85.333zM810.667 789.333h85.333v-85.333h-85.333v85.333zM938.667 917.333h-853.333c-47.128 0-85.333-38.205-85.333-85.333v0-768c0-47.128 38.205-85.333 85.333-85.333v0h256v85.333h-256v512h853.333v-85.333h85.333v341.333c0 47.128-38.205 85.333-85.333 85.333v0zM85.333 661.333v170.667h853.333v-170.667z" />
<glyph unicode="&#xe957;" glyph-name="server" d="M42.667-21.333h256v256h-256zM128 149.333h85.333v-85.333h-85.333zM384-21.333h256v256h-256zM469.333 149.333h85.333v-85.333h-85.333zM725.333 234.667v-256h256v256zM896 64h-85.333v85.333h85.333zM213.333 362.667h256v-85.333h85.333v85.333h256v-85.333h85.333v128c0 23.564-19.103 42.667-42.667 42.667v0h-298.667v42.667h170.667c47.128 0 85.333 38.205 85.333 85.333v0 256c0 47.128-38.205 85.333-85.333 85.333v0h-426.667c-47.128 0-85.333-38.205-85.333-85.333v0-256c0-47.128 38.205-85.333 85.333-85.333v0h170.667v-42.667h-298.667c-23.564 0-42.667-19.103-42.667-42.667v0-128h85.333zM298.667 576v256h426.667v-256z" />
<glyph unicode="&#xe958;" glyph-name="settings" d="M912.213 382.293c-16.366 22.102-26.196 49.903-26.196 80s9.83 57.898 26.456 80.367l-0.26-0.367c15.526 21.724 24.824 48.824 24.824 78.096 0 73.976-59.389 134.080-133.089 135.236l-0.109 0.001c-2.3 0.203-4.977 0.319-7.68 0.319s-5.38-0.116-8.024-0.343l0.344 0.024h-14.933c-54.931 0.002-102.213 32.749-123.39 79.786l-0.344 0.854c-21.523 47.888-68.804 80.632-123.733 80.632s-102.21-32.744-123.389-79.778l-0.344-0.854c-21.521-47.891-68.802-80.638-123.733-80.64h-14.934c-2.3 0.203-4.977 0.319-7.68 0.319s-5.38-0.116-8.024-0.343l0.344 0.024c-73.809-1.158-133.198-61.262-133.198-135.238 0-29.272 9.299-56.372 25.104-78.507l-0.279 0.412c16.366-22.102 26.196-49.903 26.196-80s-9.83-57.898-26.456-80.367l0.26 0.367c-16.212-22.082-25.944-49.801-25.944-79.794 0-74.455 59.972-134.903 134.244-135.673l0.073-0.001h15.36c2.237 0.202 4.838 0.318 7.467 0.318s5.23-0.115 7.8-0.341l-0.333 0.024c54.931-0.002 102.213-32.749 123.39-79.786l0.344-0.854c21.523-47.888 68.804-80.632 123.733-80.632s102.21 32.744 123.389 79.778l0.344 0.854c21.521 47.891 68.802 80.638 123.733 80.64v0c2.237 0.202 4.838 0.318 7.467 0.318s5.23-0.115 7.8-0.341l-0.333 0.024h15.36c74.346 0.771 134.317 61.218 134.317 135.673 0 29.992-9.731 57.712-26.209 80.173l0.265-0.379zM843.52 331.947c6.21-8.034 9.953-18.248 9.953-29.338 0-8.316-2.106-16.141-5.813-22.97l0.126 0.254c-8.038-15.982-23.986-26.933-42.564-27.73l-0.103-0.004h-6.4c-3.569 0.208-7.744 0.327-11.947 0.327s-8.377-0.119-12.521-0.353l0.575 0.026c-89.504-0.209-166.513-53.485-201.249-130.023l-0.565-1.39c-7.951-17.656-25.393-29.726-45.653-29.726s-37.702 12.070-45.526 29.412l-0.127 0.315c-35.301 77.928-112.31 131.204-201.786 131.413h-0.027c-3.569 0.208-7.744 0.327-11.947 0.327s-8.377-0.119-12.521-0.353l0.575 0.026h-7.68c-18.681 0.8-34.628 11.751-42.536 27.447l-0.131 0.286c-3.581 6.575-5.687 14.399-5.687 22.716 0 11.089 3.744 21.304 10.036 29.449l-0.083-0.112c26.758 35.98 42.837 81.286 42.837 130.347s-16.079 94.366-43.254 130.934l0.418-0.588c-6.21 8.034-9.953 18.248-9.953 29.338 0 8.316 2.106 16.141 5.813 22.97l-0.126-0.254c8.075 15.87 24.038 26.69 42.586 27.305l0.081 0.002h7.68c3.569-0.208 7.744-0.327 11.947-0.327s8.377 0.119 12.521 0.353l-0.575-0.026c88.732 0.499 165.056 53.11 199.965 128.76l0.568 1.374c7.951 17.656 25.393 29.726 45.653 29.726s37.702-12.070 45.526-29.412l0.127-0.315c35.122-78.052 112.209-131.413 201.759-131.413 0.019 0 0.038 0 0.058 0h-0.003c3.569-0.208 7.744-0.327 11.947-0.327s8.377 0.119 12.521 0.353l-0.575-0.026h6.4c18.628-0.617 34.592-11.436 42.537-27.026l0.13-0.281c3.581-6.575 5.687-14.399 5.687-22.716 0-11.089-3.744-21.304-10.036-29.449l0.083 0.112c-26.081-35.684-41.73-80.43-41.73-128.832 0-49.164 16.146-94.556 43.425-131.164l-0.415 0.582zM533.333 618.667c-82.475 0-149.333-66.859-149.333-149.333s66.859-149.333 149.333-149.333c82.475 0 149.333 66.859 149.333 149.333v0c0 82.475-66.859 149.333-149.333 149.333v0zM533.333 405.333c-35.346 0-64 28.654-64 64s28.654 64 64 64c35.346 0 64-28.654 64-64v0c0-35.346-28.654-64-64-64v0z" />
<glyph unicode="&#xe959;" glyph-name="show-devices" d="M903.68 95.147l-211.2 211.2c-2.069 1.888-4.465 3.464-7.085 4.627l-0.169 0.067c51.433 59.42 82.77 137.466 82.77 222.83 0 188.513-152.82 341.333-341.333 341.333s-341.333-152.82-341.333-341.333c0-188.513 152.82-341.333 341.333-341.333 74.625 0 143.656 23.948 199.828 64.577l-0.998-0.687c1.712-3.968 4.012-7.363 6.833-10.246l211.194-211.194c7.872-9.153 19.467-14.914 32.407-14.914 23.564 0 42.667 19.103 42.667 42.667 0 12.94-5.761 24.535-14.858 32.36l-0.056 0.047zM426.667 277.333c-141.385 0-256 114.615-256 256s114.615 256 256 256c141.385 0 256-114.615 256-256v0c0-141.385-114.615-256-256-256v0zM256 576h341.333v-85.333h-341.333v85.333zM469.333 704v-341.333h-85.333v341.333h85.333z" />
<glyph unicode="&#xe95a;" glyph-name="smart_s_on" d="M512 755.2c-141.385 0-256-114.615-256-256s114.615-256 256-256c141.385 0 256 114.615 256 256v0c0 141.385-114.615 256-256 256v0zM512 345.6c-84.831 0-153.6 68.769-153.6 153.6s68.769 153.6 153.6 153.6c84.831 0 153.6-68.769 153.6-153.6v0c0-84.831-68.769-153.6-153.6-153.6v0zM819.2 960h-614.4c-113.108 0-204.8-91.692-204.8-204.8v0-614.4c0-113.108 91.692-204.8 204.8-204.8v0h614.4c113.108 0 204.8 91.692 204.8 204.8v0 614.4c0 113.108-91.692 204.8-204.8 204.8v0zM846.848 66.048l-135.168 135.68c-56.165-38.285-125.516-61.13-200.203-61.13-197.939 0-358.4 160.461-358.4 358.4s160.461 358.4 358.4 358.4c197.939 0 358.4-160.461 358.4-358.4 0-87.189-31.133-167.105-82.89-229.24l0.468 0.578 134.144-129.536z" />
<glyph unicode="&#xe95b;" glyph-name="smtp" d="M981.333 375.467l-149.333 85.333c-12.239 7.187-26.957 11.432-42.667 11.432s-30.427-4.245-43.069-11.651l0.403 0.218-149.333-85.333c-25.662-15.015-42.633-42.428-42.667-73.809v-170.672c0.033-31.385 17.005-58.799 42.264-73.595l0.403-0.218 149.333-85.333c12.239-7.187 26.957-11.432 42.667-11.432s30.427 4.245 43.069 11.651l-0.403-0.218 149.333 85.333c25.662 15.015 42.633 42.428 42.667 73.809v170.672c-0.033 31.385-17.005 58.799-42.264 73.595l-0.403 0.218zM789.333 43.093l-149.333 85.333v170.667l149.333 85.333 149.333-85.333v-170.667zM853.333 221.867c0-35.346-28.654-64-64-64s-64 28.654-64 64c0 35.346 28.654 64 64 64s64-28.654 64-64zM853.333 533.333h85.333v170.667c0 47.128-38.205 85.333-85.333 85.333v0h-682.667c-47.128 0-85.333-38.205-85.333-85.333v0-512c0-47.128 38.205-85.333 85.333-85.333v0h341.333v85.333h-341.333v453.973l316.16-232.533c6.93-5.067 15.621-8.107 25.021-8.107 0.053 0 0.107 0 0.16 0h-0.008c9.503 0.099 18.243 3.289 25.281 8.611l-0.107-0.078 316.16 233.387zM512 500.907l-276.053 203.093h550.4z" />
<glyph unicode="&#xe95c;" glyph-name="software" d="M938.667 917.333h-853.333c-47.128 0-85.333-38.205-85.333-85.333v0-768c0-47.128 38.205-85.333 85.333-85.333v0h853.333c47.128 0 85.333 38.205 85.333 85.333v0 768c0 47.128-38.205 85.333-85.333 85.333v0zM938.667 64h-853.333v512h853.333zM938.667 661.333h-853.333v170.667h853.333zM810.667 789.333h85.333v-85.333h-85.333v85.333zM682.667 789.333h85.333v-85.333h-85.333v85.333zM554.667 789.333h85.333v-85.333h-85.333v85.333zM268.373 161.707c7.733-7.795 18.45-12.621 30.293-12.621s22.56 4.826 30.291 12.618l0.003 0.003c7.795 7.733 12.621 18.45 12.621 30.293s-4.826 22.56-12.618 30.291l-0.003 0.003-98.133 97.707 97.707 97.707c7.795 7.733 12.621 18.45 12.621 30.293s-4.826 22.56-12.618 30.291l-0.003 0.003c-7.712 7.668-18.343 12.407-30.080 12.407s-22.368-4.74-30.082-12.409l-127.998-127.998c-7.648-7.709-12.374-18.326-12.374-30.047 0-0.087 0-0.173 0.001-0.26v0.013c0.051-11.656 4.767-22.2 12.376-29.869l-0.003 0.003zM793.173 320l-97.707-97.707c-7.789-7.736-12.611-18.452-12.611-30.293 0-23.577 19.113-42.691 42.691-42.691 11.736 0 22.365 4.735 30.082 12.4l127.998 127.998c7.668 7.712 12.407 18.343 12.407 30.080s-4.74 22.368-12.409 30.082l-127.998 127.998c-7.712 7.668-18.343 12.407-30.080 12.407s-22.368-4.74-30.082-12.409l0.002 0.002c-7.795-7.733-12.621-18.45-12.621-30.293s4.826-22.56 12.618-30.291l0.003-0.003zM407.467 154.027c5.419-2.957 11.869-4.696 18.725-4.696 0.167 0 0.334 0.001 0.5 0.003h-0.025c16.512 0.052 30.81 9.474 37.861 23.226l0.112 0.24 128 256c2.073 4.845 3.279 10.483 3.279 16.402 0 23.564-19.103 42.667-42.667 42.667-15.438 0-28.961-8.199-36.452-20.481l-0.106-0.188-128-256c-2.861-5.577-4.539-12.167-4.539-19.149 0-16.501 9.367-30.814 23.074-37.912l0.238-0.112z" />
<glyph unicode="&#xe95d;" glyph-name="software_dispatch" d="M810.667 789.333h85.333v-85.333h-85.333v85.333zM682.667 789.333h85.333v-85.333h-85.333v85.333zM554.667 789.333h85.333v-85.333h-85.333v85.333zM938.667 917.333h-853.333c-47.128 0-85.333-38.205-85.333-85.333v0-768c0-47.128 38.205-85.333 85.333-85.333v0h469.333v85.333h-469.333v512h853.333v-170.667h85.333v426.667c0 47.128-38.205 85.333-85.333 85.333v0zM938.667 661.333h-853.333v170.667h853.333zM331.52 517.973c-7.882 9.459-19.666 15.435-32.846 15.435-10.422 0-19.971-3.736-27.38-9.943l0.067 0.054-128-106.667c-9.464-7.882-15.443-19.669-15.443-32.853s5.98-24.971 15.375-32.798l0.069-0.056 128-106.667c7.328-6.107 16.843-9.813 27.223-9.813 0.029 0 0.059 0 0.088 0h-0.005c0.021 0 0.045 0 0.069 0 13.146 0 24.903 5.945 32.73 15.293l0.054 0.067c6.152 7.343 9.888 16.892 9.888 27.314 0 13.18-5.976 24.964-15.366 32.791l-0.069 0.056-88.747 73.813 88.747 73.813c9.459 7.882 15.435 19.666 15.435 32.846 0 10.422-3.736 19.971-9.943 27.38l0.054-0.067zM810.667 384c0 0.021 0 0.045 0 0.069 0 13.146-5.945 24.903-15.293 32.73l-0.067 0.054-128 106.667c-7.346 6.139-16.891 9.867-27.307 9.867-23.594 0-42.72-19.126-42.72-42.72 0-13.178 5.967-24.962 15.346-32.798l0.068-0.055 88.747-73.813-88.747-73.813c-9.459-7.882-15.435-19.666-15.435-32.846 0-10.422 3.736-19.971 9.943-27.38l-0.054 0.067c7.881-9.415 19.638-15.36 32.784-15.36 0.024 0 0.049 0 0.073 0h-0.004c0.025 0 0.054 0 0.083 0 10.38 0 19.895 3.707 27.292 9.869l-0.069-0.056 128 106.667c9.415 7.881 15.36 19.638 15.36 32.784 0 0.024 0 0.049 0 0.073v-0.004zM472.32 506.453l-85.333-213.333c-1.921-4.681-3.037-10.114-3.037-15.808 0-17.897 11.020-33.221 26.644-39.556l0.286-0.102c4.646-1.89 10.036-2.987 15.683-2.987 0.036 0 0.073 0 0.109 0h-0.006c0.012 0 0.027 0 0.041 0 17.878 0 33.189 10.996 39.536 26.595l0.103 0.285 85.333 213.333c1.914 4.675 3.025 10.101 3.025 15.787 0 23.585-19.12 42.705-42.705 42.705-17.9 0-33.228-11.013-39.577-26.633l-0.103-0.286zM896 277.333h-85.333v-128h-128v-85.333h128v-128h85.333v128h128v85.333h-128v128z" />
<glyph unicode="&#xe95e;" glyph-name="software_pool" d="M298.667 490.667h426.667c23.564 0 42.667 19.103 42.667 42.667v0 384c0 23.564-19.103 42.667-42.667 42.667v0h-426.667c-23.564 0-42.667-19.103-42.667-42.667v0-384c0-23.564 19.103-42.667 42.667-42.667v0zM682.667 576h-341.333v170.667h341.333zM682.667 874.667v-42.667h-42.667v42.667zM554.667 874.667v-42.667h-213.333v42.667zM384 704h256v-85.333h-256v85.333zM426.667 448h-384c-23.564 0-42.667-19.103-42.667-42.667v0-384c0-23.564 19.103-42.667 42.667-42.667v0h384c23.564 0 42.667 19.103 42.667 42.667v0 384c0 23.564-19.103 42.667-42.667 42.667v0zM384 362.667v-42.667h-42.667v42.667zM256 362.667v-42.667h-170.667v42.667zM85.333 64v170.667h298.667v-170.667zM128 192h213.333v-85.333h-213.333v85.333zM981.333 448h-426.667c-23.564 0-42.667-19.103-42.667-42.667v0-384c0-23.564 19.103-42.667 42.667-42.667v0h426.667c23.564 0 42.667 19.103 42.667 42.667v0 384c0 23.564-19.103 42.667-42.667 42.667v0zM938.667 362.667v-42.667h-42.667v42.667zM810.667 362.667v-42.667h-213.333v42.667zM597.333 64v170.667h341.333v-170.667zM640 192h256v-85.333h-256v85.333z" />
<glyph unicode="&#xe95f;" glyph-name="software_remove" d="M810.667 789.333h85.333v-85.333h-85.333v85.333zM682.667 789.333h85.333v-85.333h-85.333v85.333zM554.667 789.333h85.333v-85.333h-85.333v85.333zM331.52 517.973c-7.882 9.459-19.666 15.435-32.846 15.435-10.422 0-19.971-3.736-27.38-9.943l0.067 0.054-128-106.667c-9.464-7.882-15.443-19.669-15.443-32.853s5.98-24.971 15.375-32.798l0.069-0.056 128-106.667c7.328-6.107 16.843-9.813 27.223-9.813 0.029 0 0.059 0 0.088 0h-0.005c0.021 0 0.045 0 0.069 0 13.146 0 24.903 5.945 32.73 15.293l0.054 0.067c6.152 7.343 9.888 16.892 9.888 27.314 0 13.18-5.976 24.964-15.366 32.791l-0.069 0.056-88.747 73.813 88.747 73.813c9.459 7.882 15.435 19.666 15.435 32.846 0 10.422-3.736 19.971-9.943 27.38l0.054-0.067zM938.667 917.333h-853.333c-47.128 0-85.333-38.205-85.333-85.333v0-768c0-47.128 38.205-85.333 85.333-85.333v0h341.333v85.333h-341.333v512h853.333v-85.333h85.333v341.333c0 47.128-38.205 85.333-85.333 85.333v0zM938.667 661.333h-853.333v170.667h853.333zM810.667 490.667h-128v-85.333h-213.333v-85.333h42.667v-384h469.333v384h42.667v85.333h-213.333zM896 320v-298.667h-298.667v298.667zM640 234.667h85.333v-170.667h-85.333v170.667zM768 234.667h85.333v-170.667h-85.333v170.667z" />
<glyph unicode="&#xe960;" glyph-name="storage" d="M896 686.933c0 102.4-170.667 187.733-384 187.733s-384-85.333-384-187.733v0-512s0 0 0 0c0-110.933 165.12-196.267 384-196.267s384 85.333 384 194.987c0 0 0 0 0 0v0 513.28zM810.667 339.2c0-42.667-119.040-104.533-298.667-104.533s-298.667 63.147-298.667 104.533v53.76c82.126-42.89 179.372-68.051 282.494-68.051 5.687 0 11.356 0.077 17.006 0.229l-0.833-0.018c0.732-0.003 1.598-0.004 2.464-0.004 63.36 0 124.866 7.937 183.578 22.871l-5.136-1.107c-6.187-7.198-10.026-16.571-10.239-26.835l-0.001-0.045c0-23.564 19.103-42.667 42.667-42.667s42.667 19.103 42.667 42.667v0c-0.27 18.753-12.598 34.556-29.565 40.023l-0.302 0.084c27.788 9.203 51.77 20.324 74.193 33.776l-1.66-0.923zM725.333 448c3.765 0.319 7.244 1.075 10.539 2.224l-0.299-0.091c-62.591-25.196-135.165-39.813-211.152-39.813-4.367 0-8.723 0.048-13.068 0.144l0.647-0.011c-179.627 0-298.667 62.72-298.667 104.533v52.053c81.545-44.482 178.608-70.639 281.78-70.639 5.938 0 11.856 0.087 17.753 0.259l-0.866-0.020c1.3-0.009 2.837-0.013 4.375-0.013 63.19 0 124.452 8.255 182.767 23.746l-4.955-1.12c-6.821-7.534-10.996-17.574-10.996-28.59 0-23.38 18.805-42.367 42.114-42.663h0.028zM810.667 514.987c0-17.92-22.187-39.68-61.44-58.88 11.44 7.772 18.857 20.722 18.857 35.405 0 20.573-14.561 37.746-33.94 41.773l-0.277 0.048c29.513 9.62 54.912 21.034 78.807 34.77l-2.007-1.064zM512 789.333c186.027 0 298.667-72.107 298.667-103.68s-112.64-103.68-298.667-103.68-298.667 72.107-298.667 103.68 112.64 103.68 298.667 103.68zM810.667 173.653c0-44.8-116.48-109.653-298.667-109.653s-298.667 64.853-298.667 109.653c0 0 0 0 0 0v0 42.667c81.719-42.385 178.41-67.241 280.905-67.241 6.246 0 12.47 0.092 18.671 0.276l-0.909-0.021c0.755-0.003 1.648-0.004 2.542-0.004 61.775 0 121.807 7.468 179.24 21.55l-5.142-1.066c-3.541-5.859-5.73-12.89-5.972-20.412l-0.002-0.068c0-23.564 19.103-42.667 42.667-42.667s42.667 19.103 42.667 42.667v0c-0.299 16.095-9.465 29.982-22.807 37.008l-0.233 0.112c25.431 9.315 47.096 19.664 67.609 31.758l-1.903-1.038v-42.667s0-0.427 0-0.853z" />
</font>
</defs>
</svg>
